<?xml version="1.0" encoding="UTF-8"?>
<svg width="20px" height="1180px" viewBox="0 0 20 1180" version="1.1" xmlns="http://www.w3.org/2000/svg" xmlns:xlink="http://www.w3.org/1999/xlink">
    <title>jrws_content_icons_sprite</title>
    <g id="jrws_content_icons_sprite" stroke="none" stroke-width="1" fill="none" fill-rule="evenodd">
        <g id="Group" transform="translate(0.000000, 1152.000000)" stroke="#FFFFFF">
            <g transform="translate(1.000000, 1.000000)" stroke-width="0.5">
                <rect id="piece-4" fill="#B6D978" x="0.25" y="7.10714286" width="7.5" height="6.35714286"></rect>
                <path d="M7.75,0.25 L7.75,6.60714286 L3.66741514,6.60714286 C3.87709663,7.26118358 3.9239906,7.75659505 3.70921771,8.06298733 C3.53564596,8.3106026 3.19952683,8.40626791 2.73886089,8.40626791 C2.28423913,8.40626791 1.95392991,8.31485441 1.7926024,8.06923819 C1.59056394,7.76164078 1.6646388,7.26401694 1.90406653,6.60714286 L1.90406653,6.60714286 L0.25,6.60714286 L0.25,0.25 L7.75,0.25 Z" id="piece-1" fill="#0081CB"></path>
                <path d="M15.75,0.25 L15.75,6.60714286 L8.25,6.60714286 L8.25,4.30173882 C7.46178437,4.59597996 6.8782632,4.69385873 6.52827051,4.48457196 C6.20168659,3.95956628 6.18189301,3.72575849 6.20028648,3.44490952 C6.23438918,2.92419694 6.36178041,2.55762824 6.64729146,2.39966724 C7.00148835,2.20370531 7.54376971,2.33946061 8.25,2.68182505 L8.25,2.68182505 L8.25,0.25 L15.75,0.25 Z" id="piece-2" fill="#55ADEB"></path>
                <path d="M12.2090692,4.89636161 C12.8016974,4.89636161 13.2249816,5.02267013 13.4348396,5.33766775 C13.6854229,5.71379432 13.6194258,6.31301531 13.3368584,7.10714286 L13.3368584,7.10714286 L15.75,7.10714286 L15.75,13.4642857 L8.25,13.4642857 L8.25,11.0138784 C7.37344609,11.4804979 6.71711406,11.6821397 6.30170175,11.4862164 C5.88439794,10.9037691 5.84341149,10.6261582 5.84341149,10.2857143 C5.84341149,9.64771875 5.98167594,9.19686496 6.32644596,8.98388714 C6.73671131,8.73045031 7.38654068,8.82151882 8.25,9.15476788 L8.25,9.15476788 L8.25,7.10714286 L10.7493493,7.10714286 C10.5743165,6.32062865 10.6006017,5.72793479 10.8980921,5.35494164 C11.1538413,5.03428366 11.599908,4.89636161 12.2090692,4.89636161 Z" id="piece-3" fill="#7CC344"></path>
            </g>
            <path d="M14,6.87022427 L15.8014959,10.5204536 L19.8297632,11.1057951 L16.9148816,13.9471024 L17.6029918,17.9590927 L14,16.0648879 L10.3970082,17.9590927 L11.0851184,13.9471024 L8.17023685,11.1057951 L12.1985041,10.5204536 L14,6.87022427 Z" id="Star" fill="#F57F4F"></path>
        </g>
        <g id="Combined-Shape" transform="translate(0.000000, 1116.000000)" fill="#0081CB">
            <path d="M14.6445906,3.11082295 C16.3837789,4.48433864 17.5,6.61181561 17.5,9 C17.5,13.1421356 14.1421356,16.5 10,16.5 C8.58328412,16.5 7.2583134,16.1071922 6.12805892,15.4245478 C7.04059435,14.596148 7.87213089,13.7533865 8.62508212,12.8968607 C9.86869278,11.4821811 10.6306816,10.4055218 11.6270963,8.85529573 C12.6235109,7.30506969 12.645398,7.2821848 13.5308438,5.53980501 C14.0138143,4.58941603 14.3750974,3.80671185 14.6146931,3.19169247 Z M13.7347632,2.49457633 C13.9689423,2.62930874 14.1951597,2.77632221 14.4125362,2.93473752 C13.9831167,3.78547434 13.4969571,4.65421131 12.9559537,5.53980501 C12.059745,7.00685086 10.9997864,8.35146562 10.2162686,9.27608696 C9.43275086,10.2007083 8.20269892,11.4555633 6.66530429,12.744578 C5.79471533,13.4745154 5.1334172,13.988316 4.68140991,14.2859798 C4.22509015,13.8289091 3.82827932,13.3119403 3.50260693,12.7486867 C5.06808152,11.9068753 6.3463844,11.0655459 7.33917236,10.2245584 C8.22191312,9.4767916 9.14970164,8.6498318 10.2057495,7.45295198 C10.9844273,6.57043166 11.9296737,5.3556102 12.4802736,4.49739078 C13.1049127,3.52376676 13.5124618,2.87466078 13.7029211,2.55007286 Z M10,1.5 C11.2673278,1.5 12.4612389,1.81433481 13.5080218,2.36929316 C13.0758998,3.01368856 12.6025339,3.66011827 12.0891724,4.30921419 C11.2713013,5.34333284 9.83612061,6.91230256 7.33917236,8.79358919 C5.6745402,10.0477803 4.14481608,10.8694559 2.75,11.258616 L2.83802167,11.2329583 C2.61835036,10.527634 2.5,9.7776381 2.5,9 C2.5,4.85786438 5.85786438,1.5 10,1.5 Z"></path>
        </g>
        <g id="Group" transform="translate(0.000000, 1044.000000)">
            <path d="M11.5,3 L11.5,15 L1,15 C0.44771525,15 6.76353751e-17,14.5522847 0,14 L0,4 C-6.76353751e-17,3.44771525 0.44771525,3 1,3 L11.5,3 Z M19,3 C19.5522847,3 20,3.44771525 20,4 L20,14 C20,14.5522847 19.5522847,15 19,15 L15.5,15 L15.5,3 L19,3 Z" id="Combined-Shape" fill="#C1DCF5"></path>
            <path d="M13,1.125 L11.5,1.125 C11.2238576,1.125 11,0.901142375 11,0.625 L11,0.5 C11,0.223857625 11.2238576,5.07265313e-17 11.5,0 L15.5,0 C15.7761424,-5.07265313e-17 16,0.223857625 16,0.5 L16,0.625 C16,0.901142375 15.7761424,1.125 15.5,1.125 L14,1.125 L14,16.875 L15.5,16.875 C15.7761424,16.875 16,17.0988576 16,17.375 L16,17.5 C16,17.7761424 15.7761424,18 15.5,18 L11.5,18 C11.2238576,18 11,17.7761424 11,17.5 L11,17.375 C11,17.0988576 11.2238576,16.875 11.5,16.875 L13,16.875 L13,1.125 Z" id="Combined-Shape" fill="#318DDE"></path>
            <path d="M4.746,12.108 C5.295,12.108 5.772,11.829 6.186,11.478 L6.213,11.478 L6.285,12 L6.897,12 L6.897,9.309 C6.897,8.229 6.438,7.518 5.376,7.518 C4.674,7.518 4.062,7.815 3.657,8.085 L3.945,8.589 C4.287,8.364 4.746,8.139 5.25,8.139 C5.961,8.139 6.141,8.67 6.15,9.219 C4.278,9.426 3.468,9.894 3.468,10.866 C3.468,11.658 4.017,12.108 4.746,12.108 Z M4.953,11.496 C4.53,11.496 4.197,11.307 4.197,10.821 C4.197,10.254 4.674,9.921 6.15,9.75 L6.15,10.938 C5.727,11.307 5.376,11.496 4.953,11.496 Z" id="a" fill="#062E79" fill-rule="nonzero"></path>
        </g>
        <g id="Group" transform="translate(0.000000, 972.000000)">
            <path d="M7.5,1 L15,1 L15,1 L15,5 L19,5 L19,15.5 C19,15.7761424 18.7761424,16 18.5,16 L7.5,16 C7.22385763,16 7,15.7761424 7,15.5 L7,1.5 C7,1.22385763 7.22385763,1 7.5,1 Z" id="Rectangle" stroke="#55ADEB" stroke-width="0.5" fill="#EEF4F9"></path>
            <path d="M15.2486572,0.75151062 C15.7806894,1.28131901 16.4012097,1.90111426 17.1102179,2.61089638 C17.8192262,3.3206785 18.5318104,4.03400296 19.2479706,4.75086975 L19.2479706,4.98822223 L15.0522142,4.98822223 L15.0522142,0.75151062 L15.2486572,0.75151062 Z" id="Rectangle" fill="#55ADEB"></path>
            <rect id="Rectangle" fill="#0081CB" x="9" y="5" width="2" height="9"></rect>
            <rect id="Rectangle-Copy" fill="#249490" x="12" y="8" width="2" height="6"></rect>
            <rect id="Rectangle-Copy-2" fill="#55ADEB" x="15" y="10" width="2" height="4"></rect>
            <path d="M4.75181991,4.93801131 L7.97285259,8.62312978 L5.62687022,8.62312978 L5.62687022,12.1231298 L3.87977265,12.1231298 L3.87977265,8.62312978 L1.52734125,8.62312978 L4.75181991,4.93801131 Z" id="Triangle" stroke="#FFFFFF" stroke-width="0.25" fill="#0081CB" transform="translate(4.750000, 8.498130) rotate(90.000000) translate(-4.750000, -8.498130) "></path>
        </g>
        <g id="Group" transform="translate(0.000000, 936.000000)">
            <path d="M10,0.288675135 L17.5442286,4.64433757 L17.5442286,13.3556624 L10,17.7113249 L2.45577137,13.3556624 L2.45577137,4.64433757 L10,0.288675135 Z" id="Polygon" stroke="#A5A5A5" stroke-width="0.5"></path>
            <path d="M10,3.28867513 L14.9461524,6.14433757 L14.9461524,11.8556624 L10,14.7113249 L5.05384758,11.8556624 L5.05384758,6.14433757 L10,3.28867513 Z" id="Polygon" stroke="#A5A5A5" stroke-width="0.5"></path>
            <path d="M11,1.68498942 L13.0918063,4.83702536 L10.7526605,8.38102721 C10.6500074,8.24378582 10.5374975,8.14790468 10.4151306,8.09338379 C10.2927637,8.0388629 10.1202141,8.00773497 9.8974816,8 L11,1.68498942 Z" id="Rectangle-2" fill="#00A9D7"></path>
            <g id="icon-spider_column" transform="translate(2.890948, 4.000000)" fill-rule="nonzero">
                <path d="M7.10905204,6 C6.88041238,6.00892099 6.57685222,5.82633062 6.19837155,5.45222888 L5.25803163,6.36350346 L3.10905204,8.87850467 L5.21211326,10.0841121 L5.25803163,9.95327103 L7.10905204,6.36350346 L8.29982873,9.3650084 L9.54117756,12 L12.109052,10.5140187 L7.84450757,5.62528144 C7.58284353,5.86617282 7.33769169,5.99107901 7.10905204,6 Z" id="Path" fill="#2C7ED8"></path>
                <path d="M6.91701017,4 L4.19693802,0.109090909 L4.14705679,0 L2.37627294,1.22727273 L6.19837155,4.69090909 L2.94797839,4.69090909 L0,4.69090909 L0,6.94344675 L2.2088518,6.36397669 L6.19837155,5.45222888 C6.17439542,5.12254916 6.17439542,4.8687759 6.19837155,4.69090909 C6.22234769,4.51304229 6.46189389,4.28273926 6.91701017,4 Z" id="Path" fill="#224886"></path>
                <path d="M11.5687978,3.95219809 L7.86171249,4.38102721 C8.01718803,4.59954394 8.09963454,4.78433896 8.10905204,4.93541225 C8.11846953,5.08648555 8.06033782,5.29174315 7.93465692,5.55118507 L9.31658771,5.86351206 L13.8340203,6.65671345 L13.8340203,3.69908633 L11.5687978,3.95219809 Z" id="Path" fill="#00A9D7"></path>
            </g>
            <circle id="Oval" fill="#FFFFFF" cx="10" cy="9" r="1"></circle>
        </g>
        <g id="Combined-Shape" transform="translate(0.000000, 900.000000)">
            <path d="M3.5,3.5 L3.5,14.5 L16.5,14.5 L16.5,3.5 L3.5,3.5 Z M18,2 L18,16 L2,16 L2,2 L18,2 Z" fill="#A8D2F9"></path>
            <path d="M2.9,13.35 C3.86649831,13.35 4.65,14.1335017 4.65,15.1 C4.65,16.0664983 3.86649831,16.85 2.9,16.85 C1.93350169,16.85 1.15,16.0664983 1.15,15.1 C1.15,14.1335017 1.93350169,13.35 2.9,13.35 Z M17.1,13.35 C18.0664983,13.35 18.85,14.1335017 18.85,15.1 C18.85,16.0664983 18.0664983,16.85 17.1,16.85 C16.1335017,16.85 15.35,16.0664983 15.35,15.1 C15.35,14.1335017 16.1335017,13.35 17.1,13.35 Z M2.9,1.15 C3.86649831,1.15 4.65,1.93350169 4.65,2.9 C4.65,3.86649831 3.86649831,4.65 2.9,4.65 C1.93350169,4.65 1.15,3.86649831 1.15,2.9 C1.15,1.93350169 1.93350169,1.15 2.9,1.15 Z M17.1,1.15 C18.0664983,1.15 18.85,1.93350169 18.85,2.9 C18.85,3.86649831 18.0664983,4.65 17.1,4.65 C16.1335017,4.65 15.35,3.86649831 15.35,2.9 C15.35,1.93350169 16.1335017,1.15 17.1,1.15 Z" fill="#0081CB"></path>
        </g>
        <g id="Group" transform="translate(0.000000, 864.000000)">
            <g id="Group-2" transform="translate(2.000000, 1.500000)">
                <g id="Group" transform="translate(11.000000, 7.535691) rotate(-12.000000) translate(-11.000000, -7.535691) translate(4.646447, 1.182138)" fill-rule="nonzero">
                    <polygon id="Path" fill="#055DAB" points="0.698151951 10.0358739 2.27373675e-13 12.7071068 2.66119097 12.0166958"></polygon>
                    <polygon id="Path" fill="#0081CB" points="11.1547454 3.51780822 9.18349282 1.54520548 1.15811088 9.57559993 3.137577 11.5399835"></polygon>
                    <polygon id="Path" fill="#055DAB" points="9.62702465 1.10136986 11.5818501 3.0739726 12.7071068 1.96438356 10.7276407 -1.56319402e-13 9.62702465 1.10136986"></polygon>
                </g>
                <path d="M2.25,11.535691 C2.66421356,11.535691 3,11.8714775 3,12.285691 C3,12.6999046 2.66421356,13.035691 2.25,13.035691 L0.75,13.035691 C0.335786438,13.035691 5.07265313e-17,12.6999046 0,12.285691 C-5.07265313e-17,11.8714775 0.335786438,11.535691 0.75,11.535691 L2.25,11.535691 Z M4.75,8.03569103 C5.16421356,8.03569103 5.5,8.37147747 5.5,8.78569103 C5.5,9.1999046 5.16421356,9.53569103 4.75,9.53569103 L0.75,9.53569103 C0.335786438,9.53569103 5.07265313e-17,9.1999046 0,8.78569103 C-5.07265313e-17,8.37147747 0.335786438,8.03569103 0.75,8.03569103 L4.75,8.03569103 Z M6.75,4.53569103 C7.16421356,4.53569103 7.5,4.87147747 7.5,5.28569103 C7.5,5.6999046 7.16421356,6.03569103 6.75,6.03569103 L0.75,6.03569103 C0.335786438,6.03569103 5.07265313e-17,5.6999046 0,5.28569103 C-5.07265313e-17,4.87147747 0.335786438,4.53569103 0.75,4.53569103 L6.75,4.53569103 Z M8.75,1.03569103 C9.16421356,1.03569103 9.5,1.37147747 9.5,1.78569103 C9.5,2.1999046 9.16421356,2.53569103 8.75,2.53569103 L0.75,2.53569103 C0.335786438,2.53569103 5.07265313e-17,2.1999046 0,1.78569103 C-5.07265313e-17,1.37147747 0.335786438,1.03569103 0.75,1.03569103 L8.75,1.03569103 Z" id="Combined-Shape" fill="#55ADEB"></path>
            </g>
        </g>
        <g id="Group" transform="translate(0.000000, 828.000000)">
            <path d="M16.75,1.5 C16.8880712,1.5 17,1.61192881 17,1.75 L17,15.25 C17,15.3880712 16.8880712,15.5 16.75,15.5 L1.25,15.5 C1.11192881,15.5 1,15.3880712 1,15.25 L1,1.75 C1,1.61192881 1.11192881,1.5 1.25,1.5 L16.75,1.5 Z M16.25,2 L1.75,2 C1.61192881,2 1.5,2.11192881 1.5,2.25 L1.5,2.25 L1.5,14.75 C1.5,14.8880712 1.61192881,15 1.75,15 L1.75,15 L16.25,15 C16.3880712,15 16.5,14.8880712 16.5,14.75 L16.5,14.75 L16.5,2.25 C16.5,2.11192881 16.3880712,2 16.25,2 L16.25,2 Z" id="Combined-Shape" fill="#7AC1F3" transform="translate(9.000000, 8.500000) scale(1, -1) translate(-9.000000, -8.500000) "></path>
            <path d="M16.5,2 L16.5,15 L1.5,15 L1.5,2 L16.5,2 Z M15.5,2.5 L2.5,2.5 C2.22385763,2.5 2,2.72385763 2,3 L2,3 L2,14 C2,14.2761424 2.22385763,14.5 2.5,14.5 L2.5,14.5 L15.5,14.5 C15.7761424,14.5 16,14.2761424 16,14 L16,14 L16,3 C16,2.72385763 15.7761424,2.5 15.5,2.5 L15.5,2.5 Z" id="Combined-Shape" fill="#FFFFFF" transform="translate(9.000000, 8.500000) scale(1, -1) translate(-9.000000, -8.500000) "></path>
            <g id="map-elements" transform="translate(9.000430, 8.510769) scale(1, -1) translate(-9.000430, -8.510769) translate(2.000000, 2.500000)">
                <path d="M14.0008592,2.70920139 C13.1873051,2.23753643 12.3343655,2.05250171 11.6504618,2.29716937 C11.3864248,2.38379502 10.848523,2.79002098 10.4444356,3.42590526 C10.3435456,3.58466882 10.2383296,3.85033461 10.125853,4.17040446 L10.125853,4.17040446 L9.85929,4.96022083 L9.66429901,5.52314999 C9.42767447,6.17774036 9.15757926,6.79797365 8.83828477,7.10249256 C8.34568148,7.57230027 7.50422541,7.90827382 6.79119441,8.15497578 C5.9309446,8.41406568 5.23857788,8.69313901 4.71409426,8.99219576 C3.92736884,9.44078088 3.51311319,9.71481615 3.0785401,10.1987316 C2.64396701,10.6826471 2.22205479,11.5589994 2.1,12 L2.1,12 L0,12 L0,0 L14,0 Z" id="Combined-Shape" fill="#D2F19A"></path>
                <g id="Group" transform="translate(2.100000, 2.189125)">
                    <path d="M11.9,9.83241344 L11.9,1.68573173 C11.2541646,0.87830201 10.8162836,0.846525706 9.99262377,0.946645974 C9.16896393,1.04676624 8.84130127,1.93851918 8.66072938,2.68621039 C8.48015748,3.43390161 8.14964279,4.18874563 8.03312686,4.45356095 C7.85953117,4.81194001 7.45058101,5.37313644 6.99313523,5.80031826 C6.59421941,6.08833155 5.95467208,6.39535627 5.07449325,6.72139242 C4.76572978,6.83014342 3.96298432,7.02764925 3.68706624,7.17401358 C2.99328016,7.5420414 2.53009591,7.86671066 2.10202349,8.28721574 C1.67395107,8.70772082 1.36919519,9.15061142 1.28127224,9.81087498 C2.98295309,9.81087498 6.52252901,9.81805447 11.9,9.83241344 Z" id="blue-shape" fill="#85CAFB"></path>
                    <path d="M11.9,0.52007637 C11.9005728,0.880367293 11.9008592,1.25431298 11.9008592,1.64191343 C11.4388884,1.19778187 10.9733167,0.860878566 10.3121283,0.908612406 C9.65093987,0.956346245 9.03672943,1.46199961 8.70905203,2.60981285 C8.40675455,3.78206368 7.96768226,5.00573732 7.10323118,5.72099749 C6.2387801,6.43625765 4.96084322,6.77724814 4.35483087,6.95559873 C3.68706624,7.17401358 2.6538672,7.70502748 2.10202349,8.28721574 C1.55017978,8.869404 1.28127224,9.49779525 1.28127224,9.81087498 C1.03348389,9.81087498 0.316473389,9.81087498 0,9.81087498 C0.398138428,8.62325291 0.814418641,8.20849005 1.15424194,7.81273655 C1.49406525,7.41698306 2.48622525,6.78386091 3.21817627,6.4595261 C3.98424754,6.12007227 5.9,5.71204066 6.7374256,4.91336754 C7.46724158,4.21732433 7.9400164,1.8718345 8.34357639,1.23678024 C8.74766383,0.600895959 9.28556561,0.19467 9.54960261,0.108044347 C10.2335064,-0.136623312 11.0864459,0.0484114109 11.9,0.52007637 Z" id="white-line" fill="#FFFFFF"></path>
                </g>
            </g>
            <path d="M14.5,6.37022427 L16.3014959,10.0204536 L20.3297632,10.6057951 L17.4148816,13.4471024 L18.1029918,17.4590927 L14.5,15.5648879 L10.8970082,17.4590927 L11.5851184,13.4471024 L8.67023685,10.6057951 L12.6985041,10.0204536 L14.5,6.37022427 Z" id="Star" stroke="#FFFFFF" fill="#F57F4F"></path>
        </g>
        <g id="Group" transform="translate(0.000000, 792.000000)">
            <path d="M17.75,2 C17.8880712,2 18,2.11192881 18,2.25 L18,15.75 C18,15.8880712 17.8880712,16 17.75,16 L2.25,16 C2.11192881,16 2,15.8880712 2,15.75 L2,2.25 C2,2.11192881 2.11192881,2 2.25,2 L17.75,2 Z M17.25,2.5 L2.75,2.5 C2.61192881,2.5 2.5,2.61192881 2.5,2.75 L2.5,2.75 L2.5,15.25 C2.5,15.3880712 2.61192881,15.5 2.75,15.5 L2.75,15.5 L17.25,15.5 C17.3880712,15.5 17.5,15.3880712 17.5,15.25 L17.5,15.25 L17.5,2.75 C17.5,2.61192881 17.3880712,2.5 17.25,2.5 L17.25,2.5 Z" id="Combined-Shape" fill="#7AC1F3" transform="translate(10.000000, 9.000000) scale(1, -1) translate(-10.000000, -9.000000) "></path>
            <path d="M17.5,2.5 L17.5,15.5 L2.5,15.5 L2.5,2.5 L17.5,2.5 Z M16.5,3 L3.5,3 C3.22385763,3 3,3.22385763 3,3.5 L3,3.5 L3,14.5 C3,14.7761424 3.22385763,15 3.5,15 L3.5,15 L16.5,15 C16.7761424,15 17,14.7761424 17,14.5 L17,14.5 L17,3.5 C17,3.22385763 16.7761424,3 16.5,3 L16.5,3 Z" id="Combined-Shape" fill="#FFFFFF" transform="translate(10.000000, 9.000000) scale(1, -1) translate(-10.000000, -9.000000) "></path>
            <g id="map-elements" transform="translate(10.000430, 9.010769) scale(1, -1) translate(-10.000430, -9.010769) translate(3.000000, 3.000000)">
                <path d="M14.0008592,2.70920139 C13.1873051,2.23753643 12.3343655,2.05250171 11.6504618,2.29716937 C11.3864248,2.38379502 10.848523,2.79002098 10.4444356,3.42590526 C10.3435456,3.58466882 10.2383296,3.85033461 10.125853,4.17040446 L10.125853,4.17040446 L9.85929,4.96022083 L9.66429901,5.52314999 C9.42767447,6.17774036 9.15757926,6.79797365 8.83828477,7.10249256 C8.34568148,7.57230027 7.50422541,7.90827382 6.79119441,8.15497578 C5.9309446,8.41406568 5.23857788,8.69313901 4.71409426,8.99219576 C3.92736884,9.44078088 3.51311319,9.71481615 3.0785401,10.1987316 C2.64396701,10.6826471 2.22205479,11.5589994 2.1,12 L2.1,12 L0,12 L0,0 L14,0 Z" id="Combined-Shape" fill="#D2F19A"></path>
                <g id="Group" transform="translate(2.100000, 2.189125)">
                    <path d="M11.9,9.83241344 L11.9,1.68573173 C11.2541646,0.87830201 10.8162836,0.846525706 9.99262377,0.946645974 C9.16896393,1.04676624 8.84130127,1.93851918 8.66072938,2.68621039 C8.48015748,3.43390161 8.14964279,4.18874563 8.03312686,4.45356095 C7.85953117,4.81194001 7.45058101,5.37313644 6.99313523,5.80031826 C6.59421941,6.08833155 5.95467208,6.39535627 5.07449325,6.72139242 C4.76572978,6.83014342 3.96298432,7.02764925 3.68706624,7.17401358 C2.99328016,7.5420414 2.53009591,7.86671066 2.10202349,8.28721574 C1.67395107,8.70772082 1.36919519,9.15061142 1.28127224,9.81087498 C2.98295309,9.81087498 6.52252901,9.81805447 11.9,9.83241344 Z" id="blue-shape" fill="#85CAFB"></path>
                    <path d="M11.9,0.52007637 C11.9005728,0.880367293 11.9008592,1.25431298 11.9008592,1.64191343 C11.4388884,1.19778187 10.9733167,0.860878566 10.3121283,0.908612406 C9.65093987,0.956346245 9.03672943,1.46199961 8.70905203,2.60981285 C8.40675455,3.78206368 7.96768226,5.00573732 7.10323118,5.72099749 C6.2387801,6.43625765 4.96084322,6.77724814 4.35483087,6.95559873 C3.68706624,7.17401358 2.6538672,7.70502748 2.10202349,8.28721574 C1.55017978,8.869404 1.28127224,9.49779525 1.28127224,9.81087498 C1.03348389,9.81087498 0.316473389,9.81087498 0,9.81087498 C0.398138428,8.62325291 0.814418641,8.20849005 1.15424194,7.81273655 C1.49406525,7.41698306 2.48622525,6.78386091 3.21817627,6.4595261 C3.98424754,6.12007227 5.9,5.71204066 6.7374256,4.91336754 C7.46724158,4.21732433 7.9400164,1.8718345 8.34357639,1.23678024 C8.74766383,0.600895959 9.28556561,0.19467 9.54960261,0.108044347 C10.2335064,-0.136623312 11.0864459,0.0484114109 11.9,0.52007637 Z" id="white-line" fill="#FFFFFF"></path>
                </g>
            </g>
        </g>
        <g id="Combined-Shape" transform="translate(0.000000, 756.000000)">
            <path d="M3.5,12.3 C4.05228475,12.3 4.5,12.7477153 4.5,13.3 C4.5,13.8522847 4.05228475,14.3 3.5,14.3 L3,14.3 C2.44771525,14.3 2,13.8522847 2,13.3 C2,12.7477153 2.44771525,12.3 3,12.3 L3.5,12.3 Z M3.5,7.55 C4.05228475,7.55 4.5,7.99771525 4.5,8.55 C4.5,9.10228475 4.05228475,9.55 3.5,9.55 L3,9.55 C2.44771525,9.55 2,9.10228475 2,8.55 C2,7.99771525 2.44771525,7.55 3,7.55 L3.5,7.55 Z M3.5,2.8 C4.05228475,2.8 4.5,3.24771525 4.5,3.8 C4.5,4.35228475 4.05228475,4.8 3.5,4.8 L3,4.8 C2.44771525,4.8 2,4.35228475 2,3.8 C2,3.24771525 2.44771525,2.8 3,2.8 L3.5,2.8 Z" fill="#0081CB"></path>
            <path d="M17.35,12.75 C17.7089851,12.75 18,13.0410149 18,13.4 C18,13.7589851 17.7089851,14.05 17.35,14.05 L6.65,14.05 C6.29101491,14.05 6,13.7589851 6,13.4 C6,13.0410149 6.29101491,12.75 6.65,12.75 L17.35,12.75 Z M17.35,8 C17.7089851,8 18,8.29101491 18,8.65 C18,9.00898509 17.7089851,9.3 17.35,9.3 L6.65,9.3 C6.29101491,9.3 6,9.00898509 6,8.65 C6,8.29101491 6.29101491,8 6.65,8 L17.35,8 Z M17.35,3.25 C17.7089851,3.25 18,3.54101491 18,3.9 C18,4.25898509 17.7089851,4.55 17.35,4.55 L6.65,4.55 C6.29101491,4.55 6,4.25898509 6,3.9 C6,3.54101491 6.29101491,3.25 6.65,3.25 L17.35,3.25 Z" fill="#00A9D7"></path>
        </g>
        <g id="Group" transform="translate(0.000000, 720.000000)">
            <g transform="translate(10.000000, 9.000000) rotate(45.000000) translate(-10.000000, -9.000000) translate(8.250000, 0.000000)">
                <path d="M1,3.32 C1.25,3.44 1.5,3.5 1.75,3.5 C2,3.5 2.25,3.44 2.5,3.32 L2.5,14.68 C2.25,14.56 2,14.5 1.75,14.5 C1.5,14.5 1.25,14.56 1,14.68 L1,3.32 Z" id="rectangle-left" fill="#A8D2F9"></path>
                <path d="M1.75,14.5 C2.71649831,14.5 3.5,15.2835017 3.5,16.25 C3.5,17.2164983 2.71649831,18 1.75,18 C0.783501688,18 0,17.2164983 0,16.25 C0,15.2835017 0.783501688,14.5 1.75,14.5 Z M1.75,0 C2.71649831,0 3.5,0.783501688 3.5,1.75 C3.5,2.71649831 2.71649831,3.5 1.75,3.5 C0.783501688,3.5 0,2.71649831 0,1.75 C0,0.783501688 0.783501688,0 1.75,0 Z" id="Combined-Shape" fill="#0081CB"></path>
            </g>
        </g>
        <g id="Group" transform="translate(0.000000, 648.000000)">
            <path d="M9,17 C6.77002007,17 4.75314377,16.0875949 3.30232043,14.615734 L5.57271263,12.6405828 C6.46772354,13.4834725 7.67354104,14 9,14 C11.5927767,14 13.724619,12.0265051 13.9753422,9.49969984 L16.9846613,9.49947687 C16.7268205,13.6850887 13.2505297,17 9,17 Z" id="Path" fill="#0081CB"></path>
            <path d="M8.50052313,1.01533875 L8.50030016,4.02465783 C5.97349494,4.27538101 4,6.40722328 4,9 C4,10.0755894 4.33962436,11.0718553 4.91748451,11.8874092 L2.64596694,13.8613622 C1.61352826,12.5139506 1,10.8286239 1,9 C1,4.74947025 4.31491134,1.27317954 8.50052313,1.01533875 Z" id="Path" fill="#7CC344"></path>
            <path d="M16.9846003,8.4995343 L13.9752426,8.49929802 C13.7404291,6.1376536 11.8623464,4.25957085 9.50070198,4.02475737 L9.50048204,1.01540073 C13.520109,1.26351967 16.7364894,4.47990516 16.9846003,8.4995343 Z" id="Path" fill="#00A9D7"></path>
            <g id="HTML5_logo_and_wordmark" transform="translate(9.000000, 7.000000)" fill-rule="nonzero">
                <polyline id="Path" fill="#E44D26" points="0.882352941 9.90374332 0 0 9.70053476 0 8.81818182 9.89839572 4.84224599 11"></polyline>
                <polyline id="Path" fill="#F16529" points="4.85026738 10.157754 4.85026738 0.812834225 8.81550802 0.812834225 8.05882353 9.26203209"></polyline>
                <path d="M1.80213904,2.02406417 L4.85026738,2.02406417 L4.85026738,3.23796791 L3.13368984,3.23796791 L3.2459893,4.48128342 L4.85026738,4.48128342 L4.85026738,5.69251337 L2.13368984,5.69251337 M2.18716578,6.30213904 L3.40641711,6.30213904 L3.49197861,7.27272727 L4.85026738,7.63636364 L4.85026738,8.90374332 L2.35828877,8.20855615" id="Shape" fill="#EBEBEB"></path>
                <path d="M7.88770053,2.02406417 L4.84491979,2.02406417 L4.84491979,3.23796791 L7.77540107,3.23796791 M7.6657754,4.48128342 L4.84491979,4.48128342 L4.84491979,5.69518717 L6.34224599,5.69518717 L6.20053476,7.27272727 L4.84491979,7.63636364 L4.84491979,8.89839572 L7.3315508,8.20855615" id="Shape" fill="#FFFFFF"></path>
            </g>
        </g>
        <g id="Group" transform="translate(0.000000, 612.000000)" fill="#0081CB" stroke="#00A9D7" stroke-width="0.6">
            <g id="generic">
                <path d="M15.337721,3.3 C15.0589137,5.23764844 15.0975208,6.55184389 15.4126118,7.25373883 C16.1214044,7.64089306 16.4521392,7.6155703 16.7494296,7.52651944 L16.8855206,7.48216387 C17.339055,7.32753978 17.6420141,7.22441428 17.9188842,7.22310117 C18.5740434,7.57956995 18.7,8.0691808 18.7,8.93572629 C18.7,9.77015042 18.581616,10.2525516 18.3456037,10.4907393 C17.7510067,10.660889 17.4935458,10.5911438 17.2450912,10.5145423 C16.6277876,10.3148839 16.2991421,10.2214202 16.0466618,10.2386188 C15.1230665,11.400884 15.0582454,12.8559733 15.3418768,14.9971533 L15.3418768,14.9971533 L11.2845611,14.9971533 C10.9099427,14.6294047 11.0022114,14.3655223 11.1032859,14.0778606 C11.4228323,13.1280121 11.4833889,12.5424591 11.1655596,12.1357506 C10.9253479,11.828365 10.4493361,11.5870092 9.50105373,11.5870092 C8.45962442,11.5870092 7.97178861,11.8743721 7.73827821,12.2314332 C7.41342627,12.7281646 7.59282765,13.4616986 7.80682863,14.131909 C7.87740072,14.3529274 7.95662236,14.5623356 7.9825846,14.7351258 L7.9825846,14.7351258 L4.68914599,14.9745522 L4.68914599,10.3789248 C4.14765455,10.0091813 3.80296219,10.1085356 3.39053545,10.2583714 C2.88796768,10.4409556 2.22061064,10.7404219 1.7640905,10.4465809 C1.45780902,10.2494416 1.3,9.77691712 1.3,8.93572629 C1.3,8.12902551 1.44385925,7.67143136 1.72830222,7.47086272 C2.14016848,7.18044439 2.74802694,7.4281333 3.23525357,7.58197271 C3.6274204,7.70579747 3.97362916,7.79694324 4.19869883,7.76202246 L4.19869883,7.76202246 L4.67368179,3.3 Z"></path>
            </g>
        </g>
        <g id="Rectangle" transform="translate(0.000000, 576.000000)">
            <rect stroke="#ABD0F2" stroke-width="0.5" fill="#DCEDFD" x="2.75" y="2.25" width="14.5" height="12.5" rx="1"></rect>
            <rect fill="#55ADEB" transform="translate(10.254682, 8.500000) rotate(39.000000) translate(-10.254682, -8.500000) " x="3.25468193" y="8" width="14" height="1" rx="0.5"></rect>
            <rect fill="#55ADEB" transform="translate(10.254682, 8.500000) scale(-1, 1) rotate(39.000000) translate(-10.254682, -8.500000) " x="3.25468193" y="8" width="14" height="1" rx="0.5"></rect>
        </g>
        <g id="Rectangle" transform="translate(0.000000, 540.000000)">
            <rect stroke="#318DDE" stroke-width="2" x="2" y="2" width="16" height="14" rx="1"></rect>
            <rect stroke="#55ADEB" stroke-width="0.5" fill="#FFFFFF" x="3.75" y="3.75" width="12.5" height="10.5"></rect>
        </g>
        <g id="Combined-Shape" transform="translate(0.000000, 504.000000)">
            <path d="M10,2 C13.8659932,2 17,5.13400675 17,9 C17,12.8659932 13.8659932,16 10,16 C6.13400675,16 3,12.8659932 3,9 C3,5.13400675 6.13400675,2 10,2 Z M9.9058203,3.59597377 C6.92117587,3.64807093 4.5438766,6.10983639 4.59597377,9.09448082 C4.64807093,12.0791252 7.10983639,14.4564245 10.0944808,14.4043274 C13.0791252,14.3522302 15.4564245,11.8904647 15.4043274,8.9058203 C15.3522302,5.92117587 12.8904647,3.5438766 9.9058203,3.59597377 Z" fill="#A8D2F9"></path>
            <path d="M10,13.35 C10.9664983,13.35 11.75,14.1335017 11.75,15.1 C11.75,16.0664983 10.9664983,16.85 10,16.85 C9.03350169,16.85 8.25,16.0664983 8.25,15.1 C8.25,14.1335017 9.03350169,13.35 10,13.35 Z M16.1,7.35 C17.0664983,7.35 17.85,8.13350169 17.85,9.1 C17.85,10.0664983 17.0664983,10.85 16.1,10.85 C15.1335017,10.85 14.35,10.0664983 14.35,9.1 C14.35,8.13350169 15.1335017,7.35 16.1,7.35 Z M3.9,7.15 C4.86649831,7.15 5.65,7.93350169 5.65,8.9 C5.65,9.86649831 4.86649831,10.65 3.9,10.65 C2.93350169,10.65 2.15,9.86649831 2.15,8.9 C2.15,7.93350169 2.93350169,7.15 3.9,7.15 Z M10,1.15 C10.9664983,1.15 11.75,1.93350169 11.75,2.9 C11.75,3.86649831 10.9664983,4.65 10,4.65 C9.03350169,4.65 8.25,3.86649831 8.25,2.9 C8.25,1.93350169 9.03350169,1.15 10,1.15 Z" fill="#0081CB"></path>
        </g>
        <g id="Group" transform="translate(0.000000, 468.000000)">
            <g id="Combined-Shape" transform="translate(1.500000, 2.000000)">
                <path d="M15.5,10.5 C16.3284271,10.5 17,11.1715729 17,12 C17,12.8284271 16.3284271,13.5 15.5,13.5 C14.6715729,13.5 14,12.8284271 14,12 C14,11.1715729 14.6715729,10.5 15.5,10.5 Z M15.5,3.5 C16.3284271,3.5 17,4.17157288 17,5 C17,5.82842712 16.3284271,6.5 15.5,6.5 C14.6715729,6.5 14,5.82842712 14,5 C14,4.17157288 14.6715729,3.5 15.5,3.5 Z M15.5,0 C16.3284271,0 17,0.671572875 17,1.5 C17,2.32842712 16.3284271,3 15.5,3 C14.6715729,3 14,2.32842712 14,1.5 C14,0.671572875 14.6715729,0 15.5,0 Z" fill="#0081CB"></path>
                <path d="M12,7 C12.8284271,7 13.5,7.67157288 13.5,8.5 C13.5,9.32842712 12.8284271,10 12,10 C11.1715729,10 10.5,9.32842712 10.5,8.5 C10.5,7.67157288 11.1715729,7 12,7 Z M12,3.5 C12.8284271,3.5 13.5,4.17157288 13.5,5 C13.5,5.82842712 12.8284271,6.5 12,6.5 C11.1715729,6.5 10.5,5.82842712 10.5,5 C10.5,4.17157288 11.1715729,3.5 12,3.5 Z" fill="#00A9D7"></path>
                <path d="M8.5,3.5 C9.32842712,3.5 10,4.17157288 10,5 C10,5.82842712 9.32842712,6.5 8.5,6.5 C7.67157288,6.5 7,5.82842712 7,5 C7,4.17157288 7.67157288,3.5 8.5,3.5 Z M8.5,0 C9.32842712,0 10,0.671572875 10,1.5 C10,2.32842712 9.32842712,3 8.5,3 C7.67157288,3 7,2.32842712 7,1.5 C7,0.671572875 7.67157288,0 8.5,0 Z" fill="#55ADEB"></path>
                <path d="M5,7 C5.82842712,7 6.5,7.67157288 6.5,8.5 C6.5,9.32842712 5.82842712,10 5,10 C4.17157288,10 3.5,9.32842712 3.5,8.5 C3.5,7.67157288 4.17157288,7 5,7 Z M5,3.5 C5.82842712,3.5 6.5,4.17157288 6.5,5 C6.5,5.82842712 5.82842712,6.5 5,6.5 C4.17157288,6.5 3.5,5.82842712 3.5,5 C3.5,4.17157288 4.17157288,3.5 5,3.5 Z M5,0 C5.82842712,0 6.5,0.671572875 6.5,1.5 C6.5,2.32842712 5.82842712,3 5,3 C4.17157288,3 3.5,2.32842712 3.5,1.5 C3.5,0.671572875 4.17157288,0 5,0 Z" fill="#7CC344"></path>
                <path d="M1.5,10.5 C2.32842712,10.5 3,11.1715729 3,12 C3,12.8284271 2.32842712,13.5 1.5,13.5 C0.671572875,13.5 0,12.8284271 0,12 C0,11.1715729 0.671572875,10.5 1.5,10.5 Z M1.5,7 C2.32842712,7 3,7.67157288 3,8.5 C3,9.32842712 2.32842712,10 1.5,10 C0.671572875,10 0,9.32842712 0,8.5 C0,7.67157288 0.671572875,7 1.5,7 Z M1.5,0 C2.32842712,0 3,0.671572875 3,1.5 C3,2.32842712 2.32842712,3 1.5,3 C0.671572875,3 0,2.32842712 0,1.5 C0,0.671572875 0.671572875,0 1.5,0 Z" fill="#B6D978"></path>
            </g>
        </g>
        <g id="Group" transform="translate(0.000000, 396.000000)">
            <rect id="bar-3" fill="#B6D978" x="12" y="6" width="4" height="10"></rect>
            <rect id="bar-2" fill="#7CC344" x="6.5" y="4" width="4" height="12"></rect>
            <rect id="bar-1" fill="#318DDE" x="1" y="1" width="4" height="15"></rect>
            <path d="M14,6.87022427 L15.8014959,10.5204536 L19.8297632,11.1057951 L16.9148816,13.9471024 L17.6029918,17.9590927 L14,16.0648879 L10.3970082,17.9590927 L11.0851184,13.9471024 L8.17023685,11.1057951 L12.1985041,10.5204536 L14,6.87022427 Z" id="Star" stroke="#FFFFFF" fill="#F57F4F"></path>
        </g>
        <g id="Group" transform="translate(0.000000, 324.000000)">
            <path d="M4.5,10 L11.5,10 L11.5,10 L11.5,14.5 L16,14.5 L16,17 L4,17 L4,10.5 C4,10.2238576 4.22385763,10 4.5,10 Z" id="page-bottom" fill="#95C9F9"></path>
            <path d="M17.5,7.5 C17.7761424,7.5 18,7.72385763 18,8 C18,8.27614237 17.7761424,8.5 17.5,8.5 L16.5,8.5 C16.2238576,8.5 16,8.27614237 16,8 C16,7.72385763 16.2238576,7.5 16.5,7.5 L17.5,7.5 Z M14,7.5 C14.2761424,7.5 14.5,7.72385763 14.5,8 C14.5,8.27614237 14.2761424,8.5 14,8.5 L13,8.5 C12.7238576,8.5 12.5,8.27614237 12.5,8 C12.5,7.72385763 12.7238576,7.5 13,7.5 L14,7.5 Z M10.5,7.5 C10.7761424,7.5 11,7.72385763 11,8 C11,8.27614237 10.7761424,8.5 10.5,8.5 L9.5,8.5 C9.22385763,8.5 9,8.27614237 9,8 C9,7.72385763 9.22385763,7.5 9.5,7.5 L10.5,7.5 Z M7,7.5 C7.27614237,7.5 7.5,7.72385763 7.5,8 C7.5,8.27614237 7.27614237,8.5 7,8.5 L6,8.5 C5.72385763,8.5 5.5,8.27614237 5.5,8 C5.5,7.72385763 5.72385763,7.5 6,7.5 L7,7.5 Z M3.5,7.5 C3.77614237,7.5 4,7.72385763 4,8 C4,8.27614237 3.77614237,8.5 3.5,8.5 L2.5,8.5 C2.22385763,8.5 2,8.27614237 2,8 C2,7.72385763 2.22385763,7.5 2.5,7.5 L3.5,7.5 Z" id="Combined-Shape" fill="#0081CB"></path>
            <polygon id="fold" fill="#0081CB" points="11.5 10 16 14.5 11.5 14.5"></polygon>
            <path d="M4,2 L16,2 L16,5.5 C16,5.77614237 15.7761424,6 15.5,6 L4.5,6 C4.22385763,6 4,5.77614237 4,5.5 L4,2 L4,2 Z" id="page-top" fill="#95C9F9"></path>
        </g>
        <g id="Group" transform="translate(0.000000, 288.000000)">
            <path d="M18.5,2 L18.5,16 L17.5,16 L17.5,2 L18.5,2 Z M16.5,2 L16.5,16 L16,16 L16,2 L16.5,2 Z M3,2 L3,16 L2,16 L2,2 L3,2 Z M15,2 L15,13 L14,13 L14,2 L15,2 Z M13,2 L13,13 L12,13 L12,2 L13,2 Z M11,2 L11,13 L9,13 L9,2 L11,2 Z M8,2 L8,13 L7.5,13 L7.5,2 L8,2 Z M6.5,2 L6.5,13 L6,13 L6,2 L6.5,2 Z M5,2 L5,13 L4,13 L4,2 L5,2 Z" id="Combined-Shape" fill="#0081CB"></path>
            <path d="M4.41408203,15.9443359 C4.61232422,15.9443359 4.78249023,15.8815918 4.92458008,15.7561035 C5.06666992,15.6306152 5.13771484,15.4702148 5.13771484,15.2749023 C5.13771484,15.1538086 5.1037793,15.041748 5.0359082,14.9387207 C4.96803711,14.8356934 4.86769531,14.7714844 4.73488281,14.7460938 L4.73488281,14.7460938 C4.93117187,14.6542969 5.02931641,14.5083008 5.02931641,14.3081055 C5.02931641,14.1518555 4.96950195,14.0197754 4.84987305,13.9118652 C4.73024414,13.8039551 4.58107422,13.75 4.40236328,13.75 C4.24025391,13.75 4.10084961,13.7963867 3.98415039,13.8891602 C3.86745117,13.9819336 3.79201172,14.121582 3.75783203,14.3081055 L3.75783203,14.3081055 L4.02150391,14.3564453 C4.03908203,14.2314453 4.08131836,14.1352539 4.14821289,14.0678711 C4.21510742,14.0004883 4.30177734,13.9667969 4.40822266,13.9667969 C4.50099609,13.9667969 4.5827832,13.9960938 4.65358398,14.0546875 C4.72438477,14.1132812 4.75978516,14.1958008 4.75978516,14.3022461 C4.75978516,14.3754883 4.74318359,14.4367676 4.70998047,14.486084 C4.67677734,14.5354004 4.63478516,14.5732422 4.58400391,14.5996094 C4.53322266,14.6259766 4.48732422,14.6425781 4.44630859,14.6494141 C4.40529297,14.65625 4.34962891,14.659668 4.27931641,14.659668 L4.27931641,14.659668 L4.24855469,14.8911133 C4.32179687,14.8725586 4.38380859,14.8632812 4.43458984,14.8632812 C4.55958984,14.8632812 4.6609082,14.902832 4.73854492,14.9819336 C4.81618164,15.0610352 4.855,15.1606445 4.855,15.2807617 C4.855,15.4057617 4.81227539,15.5114746 4.72682617,15.5979004 C4.64137695,15.6843262 4.53712891,15.7275391 4.41408203,15.7275391 C4.29982422,15.7275391 4.2077832,15.6923828 4.13795898,15.6220703 C4.06813477,15.5517578 4.02003906,15.4458008 3.99367187,15.3041992 L3.99367187,15.3041992 L3.73,15.3408203 C3.75050781,15.5224609 3.82228516,15.668457 3.94533203,15.7788086 C4.06837891,15.8891602 4.22462891,15.9443359 4.41408203,15.9443359 Z M6.03673828,15.9443359 C6.23986328,15.9443359 6.40270508,15.8728027 6.52526367,15.7297363 C6.64782227,15.5866699 6.70910156,15.4130859 6.70910156,15.2089844 C6.70910156,15.0068359 6.64757812,14.8408203 6.52453125,14.7109375 C6.40148437,14.5810547 6.25207031,14.5161133 6.07628906,14.5161133 C5.85265625,14.5161133 5.68029297,14.6108398 5.55919922,14.800293 L5.55919922,14.800293 C5.55529297,14.512207 5.60167969,14.3012695 5.69835937,14.1674805 C5.79503906,14.0336914 5.91076172,13.9667969 6.04552734,13.9667969 C6.23986328,13.9667969 6.36095703,14.0805664 6.40880859,14.3081055 L6.40880859,14.3081055 L6.67248047,14.284668 C6.64806641,14.1079102 6.58019531,13.9746094 6.46886719,13.8847656 C6.35753906,13.7949219 6.22130859,13.75 6.06017578,13.75 C5.81115234,13.75 5.6209668,13.8464355 5.48961914,14.0393066 C5.35827148,14.2321777 5.29259766,14.5200195 5.29259766,14.902832 C5.29259766,15.2924805 5.36510742,15.5634766 5.51012695,15.7158203 C5.65514648,15.8681641 5.83068359,15.9443359 6.03673828,15.9443359 Z M6.03087891,15.7275391 C5.90587891,15.7275391 5.80211914,15.6772461 5.71959961,15.5766602 C5.63708008,15.4760742 5.59582031,15.3544922 5.59582031,15.2119141 C5.59582031,15.0722656 5.6378125,14.9597168 5.72179687,14.8742676 C5.80578125,14.7888184 5.90587891,14.7460938 6.02208984,14.7460938 C6.14904297,14.7460938 6.25011719,14.7915039 6.3253125,14.8823242 C6.40050781,14.9731445 6.43810547,15.0878906 6.43810547,15.2265625 C6.43810547,15.3652344 6.40050781,15.4833984 6.3253125,15.5810547 C6.25011719,15.6787109 6.15197266,15.7275391 6.03087891,15.7275391 Z M7.50558594,15.9443359 C7.75265625,15.9443359 7.94259766,15.8486328 8.07541016,15.6572266 C8.20822266,15.4658203 8.27462891,15.1762695 8.27462891,14.7885742 C8.27462891,14.4067383 8.201875,14.1381836 8.05636719,13.9829102 C7.91085937,13.8276367 7.73849609,13.75 7.53927734,13.75 C7.34103516,13.75 7.17892578,13.8178711 7.05294922,13.9536133 C6.92697266,14.0893555 6.86398437,14.2636719 6.86398437,14.4765625 C6.86398437,14.6855469 6.92575195,14.8547363 7.04928711,14.9841309 C7.17282227,15.1135254 7.32296875,15.1782227 7.49972656,15.1782227 C7.60519531,15.1782227 7.7030957,15.1523438 7.79342773,15.1005859 C7.88375977,15.0488281 7.95480469,14.980957 8.0065625,14.8969727 L8.0065625,14.8969727 C8.01046875,15.1547852 7.96945312,15.357666 7.88351562,15.5056152 C7.79757812,15.6535645 7.67355469,15.7275391 7.51144531,15.7275391 C7.31417969,15.7275391 7.19552734,15.6147461 7.15548828,15.3891602 L7.15548828,15.3891602 L6.90353516,15.409668 C6.92697266,15.5893555 6.99289062,15.7233887 7.10128906,15.8117676 C7.2096875,15.9001465 7.34445312,15.9443359 7.50558594,15.9443359 Z M7.56271484,14.9482422 C7.44162109,14.9482422 7.33981445,14.9050293 7.25729492,14.8186035 C7.17477539,14.7321777 7.13351562,14.6210938 7.13351562,14.4853516 C7.13351562,14.3417969 7.17550781,14.2194824 7.25949219,14.1184082 C7.34347656,14.017334 7.44650391,13.9667969 7.56857422,13.9667969 C7.68966797,13.9667969 7.7890332,14.0144043 7.86666992,14.1096191 C7.94430664,14.204834 7.983125,14.3232422 7.983125,14.4648438 C7.983125,14.6044922 7.9452832,14.7199707 7.86959961,14.8112793 C7.79391602,14.9025879 7.69162109,14.9482422 7.56271484,14.9482422 Z M9.13703125,15.9443359 C9.36261719,15.9443359 9.53571289,15.854248 9.65631836,15.6740723 C9.77692383,15.4938965 9.83722656,15.21875 9.83722656,14.8486328 C9.83722656,14.1162109 9.60382812,13.75 9.13703125,13.75 C8.91242187,13.75 8.73981445,13.8405762 8.61920898,14.0217285 C8.49860352,14.2028809 8.43830078,14.4785156 8.43830078,14.8486328 C8.43830078,15.5791016 8.67121094,15.9443359 9.13703125,15.9443359 Z M9.13703125,15.7275391 C9.04230469,15.7275391 8.96320312,15.6970215 8.89972656,15.6359863 C8.83625,15.5749512 8.78839844,15.4819336 8.75617187,15.3569336 C8.72394531,15.2319336 8.70783203,15.0625 8.70783203,14.8486328 C8.70783203,14.5400391 8.74347656,14.315918 8.81476562,14.1762695 C8.88605469,14.0366211 8.9925,13.9667969 9.13410156,13.9667969 C9.23078125,13.9667969 9.31110352,13.9973145 9.37506836,14.0583496 C9.4390332,14.1193848 9.48688477,14.2121582 9.51862305,14.3366699 C9.55036133,14.4611816 9.56623047,14.6318359 9.56623047,14.8486328 C9.56623047,15.1601562 9.53009766,15.3845215 9.45783203,15.5217285 C9.38556641,15.6589355 9.27863281,15.7275391 9.13703125,15.7275391 Z M11.4389844,15.9443359 C11.6645703,15.9443359 11.837666,15.854248 11.9582715,15.6740723 C12.078877,15.4938965 12.1391797,15.21875 12.1391797,14.8486328 C12.1391797,14.1162109 11.9057812,13.75 11.4389844,13.75 C11.214375,13.75 11.0417676,13.8405762 10.9211621,14.0217285 C10.8005566,14.2028809 10.7402539,14.4785156 10.7402539,14.8486328 C10.7402539,15.5791016 10.9731641,15.9443359 11.4389844,15.9443359 Z M11.4389844,15.7275391 C11.3442578,15.7275391 11.2651562,15.6970215 11.2016797,15.6359863 C11.1382031,15.5749512 11.0903516,15.4819336 11.058125,15.3569336 C11.0258984,15.2319336 11.0097852,15.0625 11.0097852,14.8486328 C11.0097852,14.5400391 11.0454297,14.315918 11.1167187,14.1762695 C11.1880078,14.0366211 11.2944531,13.9667969 11.4360547,13.9667969 C11.5327344,13.9667969 11.6130566,13.9973145 11.6770215,14.0583496 C11.7409863,14.1193848 11.7888379,14.2121582 11.8205762,14.3366699 C11.8523145,14.4611816 11.8681836,14.6318359 11.8681836,14.8486328 C11.8681836,15.1601562 11.8320508,15.3845215 11.7597852,15.5217285 C11.6875195,15.6589355 11.5805859,15.7275391 11.4389844,15.7275391 Z M13.2989453,15.9077148 L13.2989453,13.75 L13.1275586,13.75 C13.017207,13.9648438 12.8101758,14.1450195 12.5064648,14.2905273 L12.5064648,14.2905273 L12.5064648,14.5454102 C12.727168,14.4584961 12.9034375,14.3525391 13.0352734,14.2275391 L13.0352734,14.2275391 L13.0352734,15.9077148 L13.2989453,15.9077148 Z M14.9816602,15.9077148 L14.9816602,15.3950195 L15.2716992,15.3950195 L15.2716992,15.1518555 L14.9816602,15.1518555 L14.9816602,13.7602539 L14.7648633,13.7602539 L13.7878125,15.1518555 L13.7878125,15.3950195 L14.7179883,15.3950195 L14.7179883,15.9077148 L14.9816602,15.9077148 Z M14.7179883,15.1518555 L14.045625,15.1518555 L14.7121289,14.1821289 L14.7179883,14.1821289 L14.7179883,15.1518555 Z" id="3690014" fill="#062E79" fill-rule="nonzero"></path>
        </g>
        <g id="Group" transform="translate(0.000000, 252.000000)" fill="#055DAB" fill-rule="nonzero">
            <g id="(x)">
                <path d="M6.15625,15.9394531 C4.79361979,13.7565104 4.11230469,11.5644531 4.11230469,9.36328125 C4.11230469,8.32877604 4.25016276,7.31022135 4.52587891,6.30761719 C4.80159505,5.30501302 5.34505208,4.13834635 6.15625,2.80761719 L6.15625,2.80761719 L5.27441406,2.80761719 C4.57259115,3.73730469 3.99153646,4.74674479 3.53125,5.8359375 C3.07096354,6.92513021 2.84082031,8.10546875 2.84082031,9.37695312 C2.84082031,10.4980469 3.05729167,11.6305339 3.49023438,12.7744141 C3.92317708,13.9182943 4.51790365,14.9733073 5.27441406,15.9394531 L5.27441406,15.9394531 L6.15625,15.9394531 Z M8.69238281,13 L8.79492188,12.5488281 C8.63997396,12.530599 8.53401693,12.4804688 8.47705078,12.3984375 C8.42008464,12.3164062 8.39160156,12.2138672 8.39160156,12.0908203 C8.39160156,11.8766276 8.46451823,11.6567383 8.61035156,11.4311523 C8.7561849,11.2055664 9.0797526,10.8717448 9.58105469,10.4296875 L9.58105469,10.4296875 L10.5449219,13 L12.7871094,13 L12.8896484,12.5488281 C12.7757161,12.5214844 12.6857096,12.4873047 12.6196289,12.4462891 C12.5535482,12.4052734 12.4886068,12.3494466 12.4248047,12.2788086 C12.3610026,12.2081706 12.2903646,12.1022135 12.2128906,11.9609375 C12.1354167,11.8196615 12.0488281,11.648763 11.953125,11.4482422 L11.953125,11.4482422 L11.0029297,9.3359375 C11.2809245,9.08528646 11.589681,8.80045573 11.9291992,8.48144531 C12.2687174,8.1624349 12.609375,7.8343099 12.9511719,7.49707031 C13.2929688,7.15983073 13.5641276,6.88411458 13.7646484,6.66992188 L13.7646484,6.66992188 L13.59375,6.21875 L11.3857422,6.21875 L11.2832031,6.66992188 C11.4335938,6.68815104 11.5384115,6.73714193 11.5976562,6.81689453 C11.656901,6.89664714 11.6865234,6.99348958 11.6865234,7.10742188 C11.6865234,7.31705729 11.625,7.52669271 11.5019531,7.73632812 C11.3789062,7.94596354 11.1123047,8.23763021 10.7021484,8.61132812 L10.7021484,8.61132812 L9.8203125,6.21875 L7.55078125,6.21875 L7.44824219,6.66992188 C7.58951823,6.70638021 7.69547526,6.74625651 7.76611328,6.78955078 C7.8367513,6.83284505 7.90852865,6.89550781 7.98144531,6.97753906 C8.05436198,7.05957031 8.13411458,7.18375651 8.22070312,7.35009766 C8.30729167,7.5164388 8.4235026,7.76367188 8.56933594,8.09179688 L8.56933594,8.09179688 L9.28027344,9.70507812 C8.87011719,10.0651042 8.34488932,10.5515951 7.70458984,11.1645508 C7.06429036,11.7775065 6.59830729,12.2389323 6.30664062,12.5488281 L6.30664062,12.5488281 L6.484375,13 L8.69238281,13 Z M14.8105469,15.9394531 C15.5123698,15.0097656 16.0934245,14.0003255 16.5537109,12.9111328 C17.0139974,11.8219401 17.2441406,10.6438802 17.2441406,9.37695312 C17.2441406,8.25130208 17.0276693,7.11653646 16.5947266,5.97265625 C16.1617839,4.82877604 15.5670573,3.77376302 14.8105469,2.80761719 L14.8105469,2.80761719 L13.9287109,2.80761719 C15.2913411,4.9905599 15.9726562,7.18489583 15.9726562,9.390625 C15.9726562,10.4251302 15.8347982,11.4425456 15.559082,12.4428711 C15.2833659,13.4431966 14.7399089,14.608724 13.9287109,15.9394531 L13.9287109,15.9394531 L14.8105469,15.9394531 Z"></path>
            </g>
        </g>
        <g id="Group" transform="translate(0.000000, 216.000000)">
            <g transform="translate(2.500000, 1.500000)">
                <path d="M10.3694593,12.4177786 C10.9111259,10.60812 11.1819593,8.48346907 11.1819593,6.04382584 C11.1819593,3.60418261 10.6402926,1.3955002 9.55695928,-0.582221399 C8.47362595,1.3955002 7.93195928,3.60418261 7.93195928,6.04382584 C7.93195928,7.90226323 8.20279262,10.0269142 8.74445928,12.4177786 L10.3694593,12.4177786 Z" id="brush-handle" fill="#055DAB" transform="translate(9.556959, 5.917779) rotate(42.000000) translate(-9.556959, -5.917779) "></path>
                <path d="M0,14.0982276 L0.962763757,15 C4.42532065,14.125399 2.90277203,12.5800405 5,11.2590301 C3.73810509,10.6740506 0.301613571,10.8681264 0,14.0982276 Z" id="brush-tip" fill="#062E79" transform="translate(2.500000, 13.000000) rotate(180.000000) translate(-2.500000, -13.000000) "></path>
            </g>
        </g>
        <g id="Group" transform="translate(0.000000, 180.000000)">
            <path d="M7.48,7.64 C7.52666667,7.64 7.58333333,7.63666667 7.65,7.63 C7.71666667,7.62333333 7.78333333,7.61333333 7.85,7.6 C7.91666667,7.58666667 7.98166667,7.57166667 8.045,7.555 C8.10833333,7.53833333 8.16,7.52333333 8.2,7.51 L8.2,7.51 L8.2,6.72 C8.14,6.73333333 8.08666667,6.74 8.04,6.74 L8.04,6.74 L7.92,6.74 C7.81333333,6.74 7.74166667,6.71 7.705,6.65 C7.66833333,6.59 7.65,6.49 7.65,6.35 L7.65,6.35 L7.65,3.69 C7.65,3.41666667 7.59,3.185 7.47,2.995 C7.35,2.805 7.19166667,2.65 6.995,2.53 C6.79833333,2.41 6.57666667,2.32333333 6.33,2.27 C6.08333333,2.21666667 5.83333333,2.19 5.58,2.19 C5.29333333,2.19 5.01333333,2.21666667 4.74,2.27 C4.46666667,2.32333333 4.22166667,2.41666667 4.005,2.55 C3.78833333,2.68333333 3.61,2.86 3.47,3.08 C3.33,3.3 3.25,3.57666667 3.23,3.91 L3.23,3.91 L4.37,3.91 C4.39666667,3.63 4.51333333,3.42333333 4.72,3.29 C4.92666667,3.15666667 5.19,3.09 5.51,3.09 C5.62333333,3.09 5.74333333,3.09833333 5.87,3.115 C5.99666667,3.13166667 6.11166667,3.165 6.215,3.215 C6.31833333,3.265 6.405,3.33666667 6.475,3.43 C6.545,3.52333333 6.58,3.64333333 6.58,3.79 C6.58,3.95666667 6.53833333,4.08166667 6.455,4.165 C6.37166667,4.24833333 6.25833333,4.31 6.115,4.35 C5.97166667,4.39 5.80666667,4.41833333 5.62,4.435 C5.43333333,4.45166667 5.23666667,4.48 5.03,4.52 C4.79,4.54666667 4.55166667,4.585 4.315,4.635 C4.07833333,4.685 3.865,4.76666667 3.675,4.88 C3.485,4.99333333 3.33166667,5.15 3.215,5.35 C3.09833333,5.55 3.04,5.81 3.04,6.13 C3.04,6.38333333 3.08833333,6.605 3.185,6.795 C3.28166667,6.985 3.41166667,7.14166667 3.575,7.265 C3.73833333,7.38833333 3.92666667,7.48166667 4.14,7.545 C4.35333333,7.60833333 4.57666667,7.64 4.81,7.64 C5.11666667,7.64 5.435,7.59 5.765,7.49 C6.095,7.39 6.37333333,7.23 6.6,7.01 C6.64666667,7.24333333 6.74666667,7.40666667 6.9,7.5 C7.05333333,7.59333333 7.24666667,7.64 7.48,7.64 Z M5.23,6.74 C5.13,6.74 5.01833333,6.73 4.895,6.71 C4.77166667,6.69 4.65833333,6.655 4.555,6.605 C4.45166667,6.555 4.36333333,6.48666667 4.29,6.4 C4.21666667,6.31333333 4.18,6.20666667 4.18,6.08 C4.18,5.93333333 4.205,5.80833333 4.255,5.705 C4.305,5.60166667 4.37333333,5.51833333 4.46,5.455 C4.54666667,5.39166667 4.64666667,5.34166667 4.76,5.305 C4.87333333,5.26833333 4.99,5.24 5.11,5.22 C5.36333333,5.17333333 5.61666667,5.13833333 5.87,5.115 C6.12333333,5.09166667 6.33666667,5.02333333 6.51,4.91 L6.51,4.91 L6.51,5.76 C6.51,5.94 6.46666667,6.09166667 6.38,6.215 C6.29333333,6.33833333 6.185,6.44 6.055,6.52 C5.925,6.6 5.78666667,6.65666667 5.64,6.69 C5.49333333,6.72333333 5.35666667,6.74 5.23,6.74 Z" id="a" fill="#055DAB" fill-rule="nonzero"></path>
            <polygon id="z" fill="#055DAB" fill-rule="nonzero" points="8.02 15.5 8.02 14.6 4.91 14.6 7.87 11.13 7.87 10.33 3.67 10.33 3.67 11.23 6.33 11.23 3.47 14.7 3.47 15.5"></polygon>
            <path d="M13.5,1.5 L17,5.5 C15.8958015,5.21422902 14.9784495,5.03216373 14.2479441,4.95380411 L14.2479441,13.0461959 C14.9784495,12.9678363 15.8958015,12.785771 17,12.5 L17,12.5 L13.5,16.5 L10,12.5 C11.1036941,12.7856404 12.0207123,12.9676699 12.7510547,13.0460884 L12.7510547,4.95391157 C12.0207123,5.03233009 11.1036941,5.21435957 10,5.5 L13.5,1.5 Z" id="Combined-Shape" fill="#0081CB"></path>
        </g>
        <g id="Group" transform="translate(0.000000, 144.000000)">
            <g id="Group-2" transform="translate(3.500000, 1.000000)">
                <path d="M0,7 L11,7 L11,10.5 C11,12.9852814 8.98528137,15 6.5,15 L5.48834826,15 L5.48834826,15 L4.5,15 C2.01471863,15 1.19253761e-15,12.9852814 0,10.5 L0,7 L0,7 Z" id="Cup" fill="#055DAB"></path>
                <path d="M6.24902344,4.42499332e-17 L6.43205355,0.00431013696 C7.43959077,0.0531583558 7.94335938,0.517216435 7.94335938,1.39648438 C7.94335938,1.76106771 7.80338542,2.25911458 7.5234375,2.890625 L7.5234375,2.890625 L7.33300781,3.32519531 L7.25204958,3.51068191 C7.04886028,3.98779096 6.94726562,4.32472512 6.94726562,4.52148438 C6.94726562,4.99674479 7.18164062,5.234375 7.65039062,5.234375 L7.65039062,5.234375 L7.69433594,5.234375 L7.69433594,5.78125 L7.51130582,5.77693986 C6.50376861,5.72809164 6,5.26403356 6,4.38476562 C6,4.0234375 6.13997396,3.52539062 6.41992188,2.890625 L6.41992188,2.890625 L6.61523438,2.45605469 L6.69516782,2.27159288 C6.89578511,1.79705584 6.99609375,1.4614077 6.99609375,1.26464844 C6.99609375,0.786132813 6.76171875,0.546875 6.29296875,0.546875 L6.29296875,0.546875 L6.24902344,0.546875 L6.24902344,4.42499332e-17 Z M3.24902344,4.42499332e-17 L3.43205355,0.00431013696 C4.43959077,0.0531583558 4.94335938,0.517216435 4.94335938,1.39648438 C4.94335938,1.76106771 4.80338542,2.25911458 4.5234375,2.890625 L4.5234375,2.890625 L4.33300781,3.32519531 L4.25204958,3.51068191 C4.04886028,3.98779096 3.94726562,4.32472512 3.94726562,4.52148438 C3.94726562,4.99674479 4.18164062,5.234375 4.65039062,5.234375 L4.65039062,5.234375 L4.69433594,5.234375 L4.69433594,5.78125 L4.51130582,5.77693986 C3.50376861,5.72809164 3,5.26403356 3,4.38476562 C3,4.0234375 3.13997396,3.52539062 3.41992188,2.890625 L3.41992188,2.890625 L3.61523438,2.45605469 L3.69516782,2.27159288 C3.89578511,1.79705584 3.99609375,1.4614077 3.99609375,1.26464844 C3.99609375,0.786132813 3.76171875,0.546875 3.29296875,0.546875 L3.29296875,0.546875 L3.24902344,0.546875 L3.24902344,4.42499332e-17 Z" id="Combined-Shape" fill="#062E79" fill-rule="nonzero"></path>
                <path d="M10,11.32 L10.02,11.32 C10.18,11.5666667 10.41,11.7616667 10.71,11.905 C11.01,12.0483333 11.33,12.12 11.67,12.12 C12.0366667,12.12 12.3683333,12.0566667 12.665,11.93 C12.9616667,11.8033333 13.215,11.6283333 13.425,11.405 C13.635,11.1816667 13.7966667,10.9183333 13.91,10.615 C14.0233333,10.3116667 14.08,9.98333333 14.08,9.63 C14.08,9.28333333 14.0233333,8.95833333 13.91,8.655 C13.7966667,8.35166667 13.635,8.08666667 13.425,7.86 C13.215,7.63333333 12.9616667,7.45666667 12.665,7.33 C12.3683333,7.20333333 12.0366667,7.14 11.67,7.14 C11.35,7.14 11.0383333,7.21 10.735,7.35 C10.4316667,7.49 10.1933333,7.68666667 10.02,7.94 L10,7.94 L10,7.26 L10,11.32 Z M11.56,11.28 C11.32,11.28 11.1033333,11.2383333 10.91,11.155 C10.7166667,11.0716667 10.5533333,10.9583333 10.42,10.815 C10.2866667,10.6716667 10.1833333,10.4983333 10.11,10.295 C10.0366667,10.0916667 10,9.87 10,9.63 C10,9.39 10.0366667,9.16833333 10.11,8.965 C10.1833333,8.76166667 10.2866667,8.58833333 10.42,8.445 C10.5533333,8.30166667 10.7166667,8.18833333 10.91,8.105 C11.1033333,8.02166667 11.32,7.98 11.56,7.98 C11.8,7.98 12.0166667,8.02166667 12.21,8.105 C12.4033333,8.18833333 12.5666667,8.30166667 12.7,8.445 C12.8333333,8.58833333 12.9366667,8.76166667 13.01,8.965 C13.0833333,9.16833333 13.12,9.39 13.12,9.63 C13.12,9.87 13.0833333,10.0916667 13.01,10.295 C12.9366667,10.4983333 12.8333333,10.6716667 12.7,10.815 C12.5666667,10.9583333 12.4033333,11.0716667 12.21,11.155 C12.0166667,11.2383333 11.8,11.28 11.56,11.28 Z" id="p" fill="#055DAB" fill-rule="nonzero"></path>
            </g>
        </g>
        <g id="Group" transform="translate(0.000000, 108.000000)">
            <g id="alternate" transform="translate(4.000000, 1.500000)">
                <path d="M7,0 L7,5.16666667 L12,5.16666667 L12,15 C12,15.2761424 11.7761424,15.5 11.5,15.5 L0.5,15.5 C0.223857625,15.5 3.38176876e-17,15.2761424 0,15 L0,0.5 C-3.38176876e-17,0.223857625 0.223857625,5.07265313e-17 0.5,0 L7,0 Z" id="bottom-rectangle" fill="#055DAB"></path>
                <path d="M0.75,0.5 L7.13588204,0.5 L7.13588204,0.5 L9.2428338,2.68140409 C9.24761076,2.68634985 9.25228519,2.69139362 9.2568541,2.69653219 L11.5,5.21935323 L11.5,5.21935323 L11.5,14.75 C11.5,14.8880712 11.3880712,15 11.25,15 L0.75,15 C0.611928813,15 0.5,14.8880712 0.5,14.75 L0.5,0.75 C0.5,0.611928813 0.611928813,0.5 0.75,0.5 Z" id="dark" fill="#C1DCF5"></path>
                <polygon id="fold" fill="#055DAB" points="7 2.84078316e-13 12 5 12 5.5 6.5 5.5 6.5 2.84217094e-13"></polygon>
            </g>
            <path d="M13.25,11 L13.25,15 L10.75,15 L10.75,11 L13.25,11 Z M9.25,8 L9.25,15 L6.75,15 L6.75,8 L9.25,8 Z" id="Combined-Shape" fill="#5C9ED8"></path>
        </g>
        <g id="Group" transform="translate(0.000000, 72.000000)" fill="#055DAB" fill-rule="nonzero">
            <g id="@-outlines">
                <path d="M8.078125,14.9921875 C8.453125,14.9921875 8.80989583,14.9765625 9.1484375,14.9453125 C9.48697917,14.9140625 9.7890625,14.8736979 10.0546875,14.8242188 C10.3203125,14.7747396 10.5416667,14.7213542 10.71875,14.6640625 C10.8958333,14.6067708 11.0078125,14.5546875 11.0546875,14.5078125 C11.1015625,14.4557292 11.1471354,14.3802083 11.1914062,14.28125 C11.2356771,14.1822917 11.2734375,14.0742188 11.3046875,13.9570312 C11.3359375,13.8398438 11.3619792,13.7252604 11.3828125,13.6132812 C11.4036458,13.5013021 11.4140625,13.4088542 11.4140625,13.3359375 C11.4140625,13.2526042 11.4010417,13.1861979 11.375,13.1367188 C11.3489583,13.0872396 11.296875,13.0625 11.21875,13.0625 C11.15625,13.0625 11.0481771,13.0872396 10.8945312,13.1367188 C10.7408854,13.1861979 10.5429688,13.2382812 10.3007812,13.2929688 C10.0585938,13.3476562 9.76953125,13.3984375 9.43359375,13.4453125 C9.09765625,13.4921875 8.71875,13.515625 8.296875,13.515625 C7.80208333,13.515625 7.36979167,13.4817708 7,13.4140625 C6.63020833,13.3463542 6.3125,13.25 6.046875,13.125 C5.78125,13 5.56380208,12.8515625 5.39453125,12.6796875 C5.22526042,12.5078125 5.08984375,12.3177083 4.98828125,12.109375 C4.88671875,11.9010417 4.81640625,11.6757812 4.77734375,11.4335938 C4.73828125,11.1914062 4.71875,10.9427083 4.71875,10.6875 C4.71875,10.5052083 4.73046875,10.2708333 4.75390625,9.984375 C4.77734375,9.69791667 4.82552083,9.38020833 4.8984375,9.03125 C4.97135417,8.68229167 5.07161458,8.31640625 5.19921875,7.93359375 C5.32682292,7.55078125 5.4921875,7.17317708 5.6953125,6.80078125 C5.8984375,6.42838542 6.14583333,6.07291667 6.4375,5.734375 C6.72916667,5.39583333 7.07552083,5.09765625 7.4765625,4.83984375 C7.87760417,4.58203125 8.33854167,4.37760417 8.859375,4.2265625 C9.38020833,4.07552083 9.96875,4 10.625,4 C11.3020833,4 11.8645833,4.06510417 12.3125,4.1953125 C12.7604167,4.32552083 13.1158854,4.50520833 13.3789062,4.734375 C13.6419271,4.96354167 13.8268229,5.23046875 13.9335938,5.53515625 C14.0403646,5.83984375 14.09375,6.16927083 14.09375,6.5234375 C14.09375,6.75260417 14.0755208,7.00651042 14.0390625,7.28515625 C14.0026042,7.56380208 13.9479167,7.84505208 13.875,8.12890625 C13.8020833,8.41276042 13.7109375,8.68880208 13.6015625,8.95703125 C13.4921875,9.22526042 13.3632812,9.46484375 13.2148438,9.67578125 C13.0664062,9.88671875 12.9010417,10.0559896 12.71875,10.1835938 C12.5364583,10.3111979 12.3385417,10.375 12.125,10.375 C11.8489583,10.375 11.6757812,10.2760417 11.6054688,10.078125 C11.5351562,9.88020833 11.5703125,9.5625 11.7109375,9.125 L11.7109375,9.125 L12.7734375,5.7578125 C12.8046875,5.6640625 12.7747396,5.59375 12.6835938,5.546875 C12.5924479,5.5 12.4088542,5.4765625 12.1328125,5.4765625 C11.8619792,5.4765625 11.671875,5.5 11.5625,5.546875 C11.453125,5.59375 11.3828125,5.6640625 11.3515625,5.7578125 L11.3515625,5.7578125 L11.1640625,6.375 C11.0442708,6.19270833 10.9231771,6.03776042 10.8007812,5.91015625 C10.6783854,5.78255208 10.5507812,5.67838542 10.4179688,5.59765625 C10.2851562,5.51692708 10.1432292,5.45833333 9.9921875,5.421875 C9.84114583,5.38541667 9.67708333,5.3671875 9.5,5.3671875 C9.08333333,5.3671875 8.70833333,5.44401042 8.375,5.59765625 C8.04166667,5.75130208 7.74348958,5.95572917 7.48046875,6.2109375 C7.21744792,6.46614583 6.9921875,6.75390625 6.8046875,7.07421875 C6.6171875,7.39453125 6.46223958,7.72526042 6.33984375,8.06640625 C6.21744792,8.40755208 6.12760417,8.7421875 6.0703125,9.0703125 C6.01302083,9.3984375 5.984375,9.69270833 5.984375,9.953125 C5.984375,10.0833333 5.9921875,10.2200521 6.0078125,10.3632812 C6.0234375,10.5065104 6.05338542,10.6471354 6.09765625,10.7851562 C6.14192708,10.9231771 6.203125,11.0546875 6.28125,11.1796875 C6.359375,11.3046875 6.46223958,11.4140625 6.58984375,11.5078125 C6.71744792,11.6015625 6.87109375,11.6770833 7.05078125,11.734375 C7.23046875,11.7916667 7.4453125,11.8203125 7.6953125,11.8203125 C7.8984375,11.8203125 8.11328125,11.7916667 8.33984375,11.734375 C8.56640625,11.6770833 8.7890625,11.5911458 9.0078125,11.4765625 C9.2265625,11.3619792 9.4375,11.2200521 9.640625,11.0507812 C9.84375,10.8815104 10.0260417,10.6848958 10.1875,10.4609375 C10.1927083,10.6692708 10.234375,10.8567708 10.3125,11.0234375 C10.390625,11.1901042 10.5013021,11.3320312 10.6445312,11.4492188 C10.7877604,11.5664062 10.9622396,11.6575521 11.1679688,11.7226562 C11.3736979,11.7877604 11.6067708,11.8203125 11.8671875,11.8203125 C12.3776042,11.8203125 12.8294271,11.7278646 13.2226562,11.5429688 C13.6158854,11.3580729 13.9596354,11.1145833 14.2539062,10.8125 C14.5481771,10.5104167 14.796875,10.1666667 15,9.78125 C15.203125,9.39583333 15.3658854,9.00130208 15.4882812,8.59765625 C15.6106771,8.19401042 15.6992188,7.79947917 15.7539062,7.4140625 C15.8085938,7.02864583 15.8359375,6.68489583 15.8359375,6.3828125 C15.8359375,5.79947917 15.7369792,5.26953125 15.5390625,4.79296875 C15.3411458,4.31640625 15.0390625,3.91015625 14.6328125,3.57421875 C14.2265625,3.23828125 13.7109375,2.97916667 13.0859375,2.796875 C12.4609375,2.61458333 11.7213542,2.5234375 10.8671875,2.5234375 C10.0598958,2.5234375 9.32942708,2.60807292 8.67578125,2.77734375 C8.02213542,2.94661458 7.43489583,3.17578125 6.9140625,3.46484375 C6.39322917,3.75390625 5.93489583,4.09375 5.5390625,4.484375 C5.14322917,4.875 4.80078125,5.29036458 4.51171875,5.73046875 C4.22265625,6.17057292 3.98177083,6.625 3.7890625,7.09375 C3.59635417,7.5625 3.44010417,8.02083333 3.3203125,8.46875 C3.20052083,8.91666667 3.1171875,9.34244792 3.0703125,9.74609375 C3.0234375,10.1497396 3,10.5104167 3,10.828125 C3,11.1979167 3.03125,11.5585938 3.09375,11.9101562 C3.15625,12.2617188 3.26302083,12.5924479 3.4140625,12.9023438 C3.56510417,13.2122396 3.76692708,13.4947917 4.01953125,13.75 C4.27213542,14.0052083 4.5859375,14.2252604 4.9609375,14.4101562 C5.3359375,14.5950521 5.77994792,14.7382812 6.29296875,14.8398438 C6.80598958,14.9414062 7.40104167,14.9921875 8.078125,14.9921875 Z M8.3125,10.359375 C8.11458333,10.359375 7.97005208,10.2955729 7.87890625,10.1679688 C7.78776042,10.0403646 7.7421875,9.84375 7.7421875,9.578125 C7.7421875,9.44270833 7.7578125,9.27994792 7.7890625,9.08984375 C7.8203125,8.89973958 7.86979167,8.70442708 7.9375,8.50390625 C8.00520833,8.30338542 8.08854167,8.1015625 8.1875,7.8984375 C8.28645833,7.6953125 8.40234375,7.51432292 8.53515625,7.35546875 C8.66796875,7.19661458 8.81770833,7.06770833 8.984375,6.96875 C9.15104167,6.86979167 9.3359375,6.8203125 9.5390625,6.8203125 C9.74739583,6.8203125 9.92838542,6.88802083 10.0820312,7.0234375 C10.2356771,7.15885417 10.3723958,7.359375 10.4921875,7.625 L10.4921875,7.625 L10.265625,8.3671875 C10.1875,8.63802083 10.0703125,8.89192708 9.9140625,9.12890625 C9.7578125,9.36588542 9.5859375,9.57682292 9.3984375,9.76171875 C9.2109375,9.94661458 9.02083333,10.0924479 8.828125,10.1992188 C8.63541667,10.3059896 8.46354167,10.359375 8.3125,10.359375 Z"></path>
            </g>
        </g>
        <g id="Group" transform="translate(0.000000, 36.000000)" fill-rule="nonzero">
            <g>
                <rect id="fill---field" fill="#0081CB" x="5" y="2" width="8" height="2"></rect>
                <path d="M13,4 L13,7.342 L9.94532662,7.3429054 C9.87119107,7.3429054 9.80482324,7.38364741 9.77028733,7.44610914 L9.75072988,7.49673066 L9.43052811,8.84617473 C9.40913317,8.93634059 9.3286008,9 9.23593136,9 L9.23593136,9 L8.34993499,9 C8.25461038,9 8.17253402,9.06727594 8.15382491,9.16074652 L8.15382491,9.16074652 L7.14092219,14.2212012 L8.37881362,14.2212012 L8.151,15 L5,15 L5,4 L13,4 Z" id="Combined-Shape" fill="#C1DCF5"></path>
                <path d="M10.244,15.5 L10.678,13.4 L12.232,13.4 L11.798,15.5 L12.96,15.5 L13.394,13.4 L14.962,13.4 L15.1470632,12.448 L13.59,12.448 L13.856,11.188 L15.368,11.188 L15.6350663,10.236 L14.052,10.236 L14.486,8.136 L13.324,8.136 L12.89,10.236 L11.336,10.236 L11.77,8.136 L10.65,8.136 L10.216,10.236 L8.82807732,10.236 L8.606,11.188 L10.02,11.188 L9.754,12.448 L8.41137699,12.448 L8.186,13.4 L9.558,13.4 L9.124,15.5 L10.244,15.5 Z M12.428,12.448 L10.874,12.448 L11.14,11.188 L12.694,11.188 L12.428,12.448 Z" id="#" fill="#055DAB"></path>
            </g>
        </g>
        <g id="alternate" transform="translate(2.000000, 1.500000)">
            <path d="M9,0 L9,5.16666667 L14,5.16666667 L14,15 C14,15.2761424 13.7761424,15.5 13.5,15.5 L2.5,15.5 C2.22385763,15.5 2,15.2761424 2,15 L2,0.5 C2,0.223857625 2.22385763,5.07265313e-17 2.5,0 L9,0 Z" id="bottom-rectangle" fill="#055DAB"></path>
            <path d="M2.75,0.5 L9.13588204,0.5 L9.13588204,0.5 L11.2428338,2.68140409 C11.2476108,2.68634985 11.2522852,2.69139362 11.2568541,2.69653219 L13.5,5.21935323 L13.5,5.21935323 L13.5,14.75 C13.5,14.8880712 13.3880712,15 13.25,15 L2.75,15 C2.61192881,15 2.5,14.8880712 2.5,14.75 L2.5,0.75 C2.5,0.611928813 2.61192881,0.5 2.75,0.5 Z" id="dark" fill="#C1DCF5"></path>
            <polygon id="fold" fill="#055DAB" points="9 2.84078316e-13 14 5 14 5.5 8.5 5.5 8.5 2.84217094e-13"></polygon>
            <rect id="middle-shaded" fill="#E3F0FC" x="2" y="8.5" width="12" height="3"></rect>
            <path d="M15.75,11.5 C15.8880712,11.5 16,11.6119288 16,11.75 L16,12.25 C16,12.3880712 15.8880712,12.5 15.75,12.5 L0.25,12.5 C0.111928813,12.5 1.69088438e-17,12.3880712 0,12.25 L0,11.75 C-1.69088438e-17,11.6119288 0.111928813,11.5 0.25,11.5 L15.75,11.5 Z M15.75,7.5 C15.8880712,7.5 16,7.61192881 16,7.75 L16,8.25 C16,8.38807119 15.8880712,8.5 15.75,8.5 L0.25,8.5 C0.111928813,8.5 1.69088438e-17,8.38807119 0,8.25 L0,7.75 C-1.69088438e-17,7.61192881 0.111928813,7.5 0.25,7.5 L15.75,7.5 Z" id="Combined-Shape" fill="#5C9ED8"></path>
        </g>
        <g id="Group" transform="translate(0.000000, 360.000000)">
            <g id="Bar-Chart" transform="translate(1.000000, 1.000000)">
                <rect id="Rectangle" fill="#055DAB" x="6" y="3" width="5" height="13"></rect>
                <rect id="Rectangle-Copy-2" fill="#062E79" x="12" y="7" width="5" height="9"></rect>
                <rect id="Rectangle-Copy" fill="#318DDE" x="0" y="0" width="5" height="16"></rect>
            </g>
        </g>
        <g id="Group" transform="translate(0.000000, 684.000000)" fill-rule="nonzero">
            <g transform="translate(1.000000, 1.000000)">
                <rect id="Rectangle" fill="#0081CB" x="0" y="0" width="18" height="16" rx="1"></rect>
                <polygon id="Path-13" fill="#E0F0F9" points="2 14 7.25 5 10.75 11 12.5 8 16 14"></polygon>
                <circle id="Oval" fill="#E0F0F9" cx="13.5" cy="4.5" r="1.5"></circle>
            </g>
        </g>
        <g id="Group" transform="translate(0.000000, 1008.000000)" fill-rule="nonzero">
            <g transform="translate(1.000000, 2.000000)">
                <rect id="body" fill="#C1DCF5" x="0" y="5" width="17" height="9"></rect>
                <rect id="column-labels" fill="#0081CB" x="0" y="0" width="17" height="4"></rect>
            </g>
        </g>
        <g id="Group" transform="translate(0.000000, 1080.000000)">
            <g transform="translate(3.000000, 0.000000)">
                <text id="T" font-family="AmericanTypewriter-Semibold, American Typewriter" font-size="16" font-weight="500" line-spacing="16" fill="#062E79">
                    <tspan x="1.5" y="14">T</tspan>
                </text>
                <rect id="Rectangle" fill="#318DDE" fill-rule="nonzero" x="0" y="15" width="14" height="2"></rect>
            </g>
        </g>
        <g id="Group" transform="translate(0.000000, 432.000000)">
            <g id="crosstab" transform="translate(1.000000, 2.000000)">
                <rect id="body" fill="#C1DCF5" x="5" y="5" width="12" height="9"></rect>
                <path d="M17,0 L17,4 L4,4 L4,14 L0,14 L0,0 L17,0 Z" id="Combined-Shape" fill="#0081CB"></path>
            </g>
        </g>
    </g>
</svg>