<?xml version="1.0" encoding="UTF-8"?>
<svg width="372px" height="25px" viewBox="0 0 372 25" version="1.1" xmlns="http://www.w3.org/2000/svg" xmlns:xlink="http://www.w3.org/1999/xlink">
    <title>jrws_logo</title>
    <g id="jrws_logo" stroke="none" stroke-width="1" fill="none" fill-rule="evenodd">
        <path d="M81.881,21.23 C84.756,21.23 86.895,19.367 86.895,15.664 L86.895,4.9 L85.055,4.9 L85.055,15.687 C85.055,18.24 83.721,19.551 81.904,19.551 C80.225,19.551 79.213,18.746 78.224,17.251 L76.913,18.378 C77.925,20.034 79.466,21.23 81.881,21.23 Z M93.939,21.253 C96.032,21.253 97.412,20.287 98.24,19.206 L98.24,21 L99.942,21 L99.942,13.732 C99.942,10.604 98.125,8.948 94.882,8.948 C93.157,8.948 91.869,9.339 90.558,9.937 L91.087,11.386 C92.191,10.88 93.295,10.512 94.698,10.512 C96.929,10.512 98.24,11.616 98.24,13.755 L98.24,14.169 C97.182,13.87 96.101,13.663 94.583,13.663 C91.57,13.663 89.5,14.997 89.5,17.527 C89.5,20.011 91.731,21.253 93.939,21.253 Z M94.284,19.85 C92.674,19.85 91.294,18.976 91.294,17.458 C91.294,15.94 92.536,14.974 94.767,14.974 C96.216,14.974 97.389,15.227 98.263,15.48 L98.263,16.63 C98.263,18.516 96.469,19.85 94.284,19.85 Z M107.147,21.23 C109.516,21.23 111.379,19.919 111.379,17.665 L111.379,17.619 C111.379,15.48 109.401,14.767 107.561,14.215 C105.974,13.732 104.502,13.295 104.502,12.168 L104.502,12.122 C104.502,11.133 105.399,10.397 106.802,10.397 C107.952,10.397 109.217,10.834 110.321,11.547 L111.126,10.213 C109.907,9.408 108.297,8.902 106.848,8.902 C104.502,8.902 102.8,10.259 102.8,12.306 L102.8,12.352 C102.8,14.537 104.87,15.181 106.733,15.71 C108.297,16.147 109.7,16.607 109.7,17.803 L109.7,17.849 C109.7,18.999 108.665,19.735 107.239,19.735 C105.836,19.735 104.41,19.183 103.122,18.217 L102.225,19.482 C103.559,20.563 105.445,21.23 107.147,21.23 Z M115.939,24.68 L115.939,18.723 C116.859,20.057 118.285,21.253 120.493,21.253 C123.368,21.253 126.174,18.953 126.174,15.043 C126.174,11.11 123.345,8.856 120.493,8.856 C118.308,8.856 116.905,10.075 115.939,11.501 L115.939,9.109 L114.168,9.109 L114.168,24.68 L115.939,24.68 Z M120.171,19.666 C117.963,19.666 115.87,17.826 115.87,15.043 C115.87,12.283 117.963,10.443 120.171,10.443 C122.425,10.443 124.357,12.237 124.357,15.066 C124.357,17.964 122.471,19.666 120.171,19.666 Z M134.138,21.276 C136.392,21.276 137.841,20.379 139.037,19.045 L137.933,18.056 C136.967,19.068 135.817,19.735 134.184,19.735 C132.091,19.735 130.251,18.286 129.998,15.71 L139.428,15.71 C139.451,15.503 139.451,15.319 139.451,15.158 C139.451,11.662 137.427,8.856 133.908,8.856 C130.619,8.856 128.204,11.616 128.204,15.066 C128.204,18.769 130.872,21.276 134.138,21.276 Z M137.657,14.399 L129.998,14.399 C130.228,12.076 131.792,10.351 133.862,10.351 C136.231,10.351 137.473,12.237 137.657,14.399 Z M143.827,21 L143.827,16.262 C143.827,12.674 145.943,10.811 148.542,10.811 L148.68,10.811 L148.68,8.902 C146.426,8.81 144.701,10.236 143.827,12.214 L143.827,9.109 L142.056,9.109 L142.056,21 L143.827,21 Z M152.987,21 L152.987,14.744 L157.587,14.744 L162.256,21 L164.487,21 L159.542,14.422 C162.072,13.962 163.912,12.398 163.912,9.707 C163.912,6.809 161.635,4.9 158.093,4.9 L151.17,4.9 L151.17,21 L152.987,21 Z M157.932,13.111 L152.987,13.111 L152.987,6.579 L157.955,6.579 C160.554,6.579 162.072,7.775 162.072,9.776 C162.072,11.869 160.347,13.111 157.932,13.111 Z M171.968,21.276 C174.222,21.276 175.671,20.379 176.867,19.045 L175.763,18.056 C174.797,19.068 173.647,19.735 172.014,19.735 C169.921,19.735 168.081,18.286 167.828,15.71 L177.258,15.71 C177.281,15.503 177.281,15.319 177.281,15.158 C177.281,11.662 175.257,8.856 171.738,8.856 C168.449,8.856 166.034,11.616 166.034,15.066 C166.034,18.769 168.702,21.276 171.968,21.276 Z M175.487,14.399 L167.828,14.399 C168.058,12.076 169.622,10.351 171.692,10.351 C174.061,10.351 175.303,12.237 175.487,14.399 Z M181.657,24.68 L181.657,18.723 C182.577,20.057 184.003,21.253 186.211,21.253 C189.086,21.253 191.892,18.953 191.892,15.043 C191.892,11.11 189.063,8.856 186.211,8.856 C184.026,8.856 182.623,10.075 181.657,11.501 L181.657,9.109 L179.886,9.109 L179.886,24.68 L181.657,24.68 Z M185.889,19.666 C183.681,19.666 181.588,17.826 181.588,15.043 C181.588,12.283 183.681,10.443 185.889,10.443 C188.143,10.443 190.075,12.237 190.075,15.066 C190.075,17.964 188.189,19.666 185.889,19.666 Z M200.086,21.276 C203.674,21.276 206.319,18.424 206.319,15.043 C206.319,11.662 203.697,8.856 200.132,8.856 C196.544,8.856 193.922,11.708 193.922,15.089 C193.922,18.47 196.521,21.276 200.086,21.276 Z M200.132,19.689 C197.625,19.689 195.739,17.619 195.739,15.043 C195.739,12.467 197.51,10.42 200.086,10.42 C202.593,10.42 204.502,12.49 204.502,15.089 C204.502,17.642 202.708,19.689 200.132,19.689 Z M210.787,21 L210.787,16.262 C210.787,12.674 212.903,10.811 215.502,10.811 L215.64,10.811 L215.64,8.902 C213.386,8.81 211.661,10.236 210.787,12.214 L210.787,9.109 L209.016,9.109 L209.016,21 L210.787,21 Z M221.81,21.207 C222.661,21.207 223.328,21.023 223.949,20.701 L223.949,19.183 C223.328,19.482 222.822,19.597 222.224,19.597 C221.028,19.597 220.223,19.068 220.223,17.619 L220.223,10.673 L223.995,10.673 L223.995,9.109 L220.223,9.109 L220.223,5.521 L218.452,5.521 L218.452,9.109 L216.796,9.109 L216.796,10.673 L218.452,10.673 L218.452,17.849 C218.452,20.264 219.901,21.207 221.81,21.207 Z M230.556,21.23 C232.925,21.23 234.788,19.919 234.788,17.665 L234.788,17.619 C234.788,15.48 232.81,14.767 230.97,14.215 C229.383,13.732 227.911,13.295 227.911,12.168 L227.911,12.122 C227.911,11.133 228.808,10.397 230.211,10.397 C231.361,10.397 232.626,10.834 233.73,11.547 L234.535,10.213 C233.316,9.408 231.706,8.902 230.257,8.902 C227.911,8.902 226.209,10.259 226.209,12.306 L226.209,12.352 C226.209,14.537 228.279,15.181 230.142,15.71 C231.706,16.147 233.109,16.607 233.109,17.803 L233.109,17.849 C233.109,18.999 232.074,19.735 230.648,19.735 C229.245,19.735 227.819,19.183 226.531,18.217 L225.634,19.482 C226.968,20.563 228.854,21.23 230.556,21.23 Z M250.302,21.115 L254.741,8.051 L259.157,21.115 L260.698,21.115 L266.448,4.9 L264.539,4.9 L259.939,18.309 L255.523,4.854 L254.028,4.854 L249.612,18.309 L245.012,4.9 L243.034,4.9 L248.784,21.115 L250.302,21.115 Z M272.641,21.276 C274.895,21.276 276.344,20.379 277.54,19.045 L276.436,18.056 C275.47,19.068 274.32,19.735 272.687,19.735 C270.594,19.735 268.754,18.286 268.501,15.71 L277.931,15.71 C277.954,15.503 277.954,15.319 277.954,15.158 C277.954,11.662 275.93,8.856 272.411,8.856 C269.122,8.856 266.707,11.616 266.707,15.066 C266.707,18.769 269.375,21.276 272.641,21.276 Z M276.16,14.399 L268.501,14.399 C268.731,12.076 270.295,10.351 272.365,10.351 C274.734,10.351 275.976,12.237 276.16,14.399 Z M286.884,21.253 C289.759,21.253 292.565,18.953 292.565,15.043 C292.565,11.11 289.736,8.856 286.884,8.856 C284.699,8.856 283.296,10.075 282.33,11.501 L282.33,4.21 L280.559,4.21 L280.559,21 L282.33,21 L282.33,18.723 C283.25,20.057 284.676,21.253 286.884,21.253 Z M286.562,19.666 C284.354,19.666 282.261,17.826 282.261,15.043 C282.261,12.283 284.354,10.443 286.562,10.443 C288.816,10.443 290.748,12.237 290.748,15.066 C290.748,17.964 288.862,19.666 286.562,19.666 Z M307.55,21.23 C310.747,21.23 313.047,19.436 313.047,16.653 C313.047,14.169 311.391,12.858 307.803,12.076 C304.261,11.317 303.433,10.466 303.433,8.925 C303.433,7.453 304.767,6.303 306.86,6.303 C308.516,6.303 310.011,6.832 311.506,8.051 L312.564,6.648 C310.931,5.337 309.252,4.67 306.906,4.67 C303.847,4.67 301.616,6.51 301.616,9.086 C301.616,11.754 303.318,12.95 307.021,13.755 C310.402,14.468 311.207,15.319 311.207,16.837 C311.207,18.47 309.781,19.597 307.619,19.597 C305.388,19.597 303.778,18.838 302.099,17.32 L300.972,18.654 C302.904,20.379 304.997,21.23 307.55,21.23 Z M319.815,21.207 C320.666,21.207 321.333,21.023 321.954,20.701 L321.954,19.183 C321.333,19.482 320.827,19.597 320.229,19.597 C319.033,19.597 318.228,19.068 318.228,17.619 L318.228,10.673 L322,10.673 L322,9.109 L318.228,9.109 L318.228,5.521 L316.457,5.521 L316.457,9.109 L314.801,9.109 L314.801,10.673 L316.457,10.673 L316.457,17.849 C316.457,20.264 317.906,21.207 319.815,21.207 Z M328.998,21.253 C331.045,21.253 332.264,20.218 333.069,18.93 L333.069,21 L334.817,21 L334.817,9.109 L333.069,9.109 L333.069,15.917 C333.069,18.148 331.528,19.643 329.504,19.643 C327.411,19.643 326.215,18.263 326.215,16.055 L326.215,9.109 L324.444,9.109 L324.444,16.492 C324.444,19.321 326.123,21.253 328.998,21.253 Z M343.287,21.253 C345.472,21.253 346.875,20.034 347.841,18.608 L347.841,21 L349.612,21 L349.612,4.21 L347.841,4.21 L347.841,11.386 C346.921,10.052 345.495,8.856 343.287,8.856 C340.435,8.856 337.606,11.156 337.606,15.066 C337.606,18.999 340.435,21.253 343.287,21.253 Z M343.609,19.666 C341.355,19.666 339.423,17.872 339.423,15.043 C339.423,12.145 341.309,10.443 343.609,10.443 C345.817,10.443 347.91,12.283 347.91,15.043 C347.91,17.826 345.817,19.666 343.609,19.666 Z M355.138,6.51 L355.138,4.555 L353.114,4.555 L353.114,6.51 L355.138,6.51 Z M355,21 L355,9.109 L353.229,9.109 L353.229,21 L355,21 Z M364.045,21.276 C367.633,21.276 370.278,18.424 370.278,15.043 C370.278,11.662 367.656,8.856 364.091,8.856 C360.503,8.856 357.881,11.708 357.881,15.089 C357.881,18.47 360.48,21.276 364.045,21.276 Z M364.091,19.689 C361.584,19.689 359.698,17.619 359.698,15.043 C359.698,12.467 361.469,10.42 364.045,10.42 C366.552,10.42 368.461,12.49 368.461,15.089 C368.461,17.642 366.667,19.689 364.091,19.689 Z" id="JasperReportsWebStudio" fill="#FFFFFF" fill-rule="nonzero"></path>
        <g id="TIBCO-shapes" transform="translate(1.000000, 4.700000)" fill="#FFFFFF" fill-rule="nonzero">
            <polygon id="Path" points="8.10928962 2.17351598 8.10928962 17 5.89071038 17 5.89071038 2.17351598 0 2.17351598 0 0 14 0 14 2.17351598"></polygon>
            <rect id="Rectangle" x="16" y="0" width="2" height="17"></rect>
            <path d="M27.5384615,9.58181818 L24.2307692,9.58181818 L24.2307692,14.9136364 L27.9230769,14.9136364 C30.4615385,14.9136364 31.6923077,13.9863636 31.6923077,12.2863636 C31.6923077,10.2772727 29.9230769,9.58181818 27.5384615,9.58181818 M27.7692308,2.16363636 L24.3076923,2.16363636 L24.3076923,7.49545455 L27.3846154,7.49545455 C29.8461538,7.49545455 31.1538462,6.41363636 31.1538462,4.71363636 C31.1538462,3.09090909 29.9230769,2.16363636 27.7692308,2.16363636 M34,12.2090909 C34,15.0681818 32.0769231,17 27.7692308,17 L22,17 L22,0 L27.6153846,0 C31.6923077,0 33.4615385,1.85454545 33.4615385,4.48181818 C33.4615385,6.25909091 32.4615385,7.49545455 30.5384615,8.19090909 C32.7692308,8.80909091 34,10.2772727 34,12.2090909" id="Shape"></path>
            <path d="M49.2222222,3.32272727 C47.7444444,2.39545455 46.3444444,1.93181818 44.5555556,1.93181818 C40.8222222,1.93181818 38.3333333,4.40454545 38.3333333,8.42272727 C38.3333333,12.4409091 40.8222222,14.9909091 44.6333333,14.9909091 C46.5,14.9909091 48.2888889,14.2954545 49.4555556,13.4454545 L49.8444444,15.6863636 C48.4444444,16.5363636 46.5,17 44.5555556,17 C39.5777778,17 36,13.6772727 36,8.57727273 C36,3.4 39.5777778,0 44.5555556,0 C46.5,0 48.6,0.540909091 50,1.31363636 L49.2222222,3.32272727 Z" id="Path"></path>
            <g id="Group" transform="translate(50.000000, 0.000000)">
                <path d="M13.1538462,1.15909091 C12.9230769,1.00454545 12.6153846,0.85 12.3846154,0.772727273 C10.1538462,4.86818182 6.15384615,9.65909091 0.846153846,12.4409091 C1.15384615,13.1363636 1.53846154,13.6772727 2,14.2181818 C6.61538462,11.2045455 10.7692308,6.18181818 13.1538462,1.15909091" id="Path"></path>
                <path d="M12.1538462,0.695454545 C11.0769231,0.231818182 9.84615385,0 8.46153846,0 C3.53846154,0 0,3.70909091 0,8.5 C0,9.35 0.0769230769,10.1227273 0.230769231,10.8181818 C5.38461538,8.88636364 9.92307692,4.48181818 12.1538462,0.695454545" id="Path"></path>
                <path d="M13.3846154,1.31363636 C10.7692308,7.49545455 7.61538462,11.8227273 3.53846154,15.6090909 C4.92307692,16.5363636 6.61538462,17 8.53846154,17 C13.4615385,17 17,13.2909091 17,8.42272727 C17,5.25454545 15.6153846,2.70454545 13.3846154,1.31363636" id="Path"></path>
            </g>
        </g>
        <g id="R-symbol" transform="translate(66.800000, 3.700000)" fill="#FFFFFF" fill-rule="nonzero">
            <path d="M0.380952381,2 C0.380952381,1.14285714 1.14285714,0.380952381 2,0.380952381 C2.85714286,0.380952381 3.61904762,1.14285714 3.61904762,2 C3.61904762,2.85714286 2.85714286,3.61904762 2,3.61904762 C1.04761905,3.61904762 0.380952381,2.85714286 0.380952381,2 M0,2 C0,3.04761905 0.857142857,4 2,4 C3.14285714,4 4,3.14285714 4,2 C4,0.857142857 3.14285714,0 2,0 C0.857142857,0 0,0.857142857 0,2" id="Shape"></path>
            <path d="M1.71437872,2.08426339 L1.71437872,2.85714286 L1.48697917,2.85714286 L1.48697917,0.990513393 L1.97107515,0.990513393 C2.0529208,0.990513393 2.12244205,0.993536056 2.179641,0.999581473 C2.23683994,1.00562689 2.28915527,1.01515991 2.33658854,1.0281808 C2.46679753,1.06352324 2.5663129,1.12374399 2.63513765,1.20884487 C2.7039624,1.29394574 2.73837426,1.40020398 2.73837426,1.52762277 C2.73837426,1.60295797 2.7262836,1.67038661 2.70210193,1.72991071 C2.67792027,1.78943482 2.64397343,1.84105261 2.60026042,1.88476562 C2.5565474,1.92847864 2.50423208,1.96428557 2.44331287,1.9921875 C2.38239367,2.02008943 2.31473251,2.04055053 2.24032738,2.05357143 L2.24032738,2.05915179 L2.8499814,2.85714286 L2.5639881,2.85714286 L1.98921131,2.08426339 L1.71437872,2.08426339 Z M1.71437872,1.19559152 L1.71437872,1.87918527 L1.9389881,1.87918527 C2.00874291,1.87918527 2.06826612,1.87686014 2.11755952,1.87220982 C2.16685293,1.8675595 2.21103031,1.85918905 2.25009301,1.84709821 C2.32914846,1.82291655 2.39006675,1.78431946 2.4328497,1.7313058 C2.47563265,1.67829215 2.49702381,1.6090034 2.49702381,1.5234375 C2.49609375,1.44345198 2.47563264,1.379046 2.43563988,1.33021763 C2.39564712,1.28138926 2.34030913,1.24627987 2.26962426,1.22488839 C2.23614195,1.21465769 2.19614979,1.20721729 2.14964658,1.20256696 C2.10314337,1.19791664 2.04408518,1.19559152 1.97247024,1.19559152 L1.71437872,1.19559152 Z" id="R"></path>
        </g>
    </g>
</svg>