<?xml version="1.0" encoding="UTF-8"?>
<svg width="20px" height="524px" viewBox="0 0 20 524" version="1.1" xmlns="http://www.w3.org/2000/svg" xmlns:xlink="http://www.w3.org/1999/xlink">
    <title>file_type_icons_sprite_selected</title>
    <defs>
        <circle id="path-1" cx="9" cy="9" r="9"></circle>
        <circle id="path-3" cx="9" cy="9" r="9"></circle>
        <circle id="path-5" cx="9" cy="9" r="9"></circle>
    </defs>
    <g id="file_type_icons_sprite_selected" stroke="none" stroke-width="1" fill="none" fill-rule="evenodd">
        <g id="Tree/file/image" transform="translate(4, 506)">
            <path d="M7,0 L7,5 L12,5 L12,14.5 C12,14.7761424 11.7761424,15 11.5,15 L0.5,15 C0.223857625,15 1.69088438e-17,14.7761424 0,14.5 L0,0.5 C-3.38176876e-17,0.223857625 0.223857625,3.38176876e-17 0.5,0 L7,0 Z" id="bottom-rectangle" fill="#FFFFFF"></path>
            <g id="scene" transform="translate(1.5, 0)">
                <polygon id="Path-13" fill="#0081CB" fill-rule="nonzero" points="-1.2490009e-16 13.5 3.375 7.5 5.625 11.5 6.75 9.5 9 13.5"></polygon>
                <circle id="Oval" fill="#0081CB" fill-rule="nonzero" cx="6.5" cy="7.5" r="1"></circle>
                <polygon id="fold" fill="#C1DCF5" points="5.5 0 10.5 5 5.5 5"></polygon>
            </g>
            <polygon id="fold" fill="#055DAB" points="7 0 12 5 7 5"></polygon>
        </g>
        <g id="Tree/file/code" transform="translate(4, 470)">
            <path d="M7,0 L7,5 L12,5 L12,14.5 C12,14.7761424 11.7761424,15 11.5,15 L0.5,15 C0.223857625,15 1.69088438e-17,14.7761424 0,14.5 L0,0.5 C-3.38176876e-17,0.223857625 0.223857625,3.38176876e-17 0.5,0 L7,0 Z" id="bottom-rectangle" fill="#FFFFFF"></path>
            <polygon id="fold" fill="#055DAB" points="7 0 12 5 7 5"></polygon>
            <g id="thin-icon" transform="translate(1, 7)" fill="#0081CB">
                <path d="M1.30170194,1.26438168 C1.49576866,1.26438168 1.65309083,1.42170384 1.65309083,1.61577057 L1.65215013,4.05138168 L4.11440744,4.05228052 C4.30695134,4.05228052 4.46303902,4.20836819 4.46303902,4.40091209 C4.46303902,4.593456 4.30695134,4.74954367 4.11440744,4.74954367 L1.31191712,4.75055184 C1.30852389,4.75064871 1.30511861,4.75069747 1.30170194,4.75069747 C1.25318526,4.75069747 1.20696511,4.74086483 1.16492553,4.72308359 C1.03694945,4.66922132 0.94915013,4.54532002 0.94915013,4.40091209 L0.95015013,4.39038168 L0.950313051,1.61577057 C0.950313051,1.42170384 1.10763522,1.26438168 1.30170194,1.26438168 Z" id="Combined-Shape" transform="translate(2.7061, 3.0075) rotate(45) translate(-2.7061, -3.0075)"></path>
                <path d="M5.89173274,1.26438168 C6.08579947,1.26438168 6.24312163,1.42170384 6.24312163,1.61577057 L6.24218094,4.05138168 L8.70443825,4.05228052 C8.89698215,4.05228052 9.05306982,4.20836819 9.05306982,4.40091209 C9.05306982,4.593456 8.89698215,4.74954367 8.70443825,4.74954367 L5.90194792,4.75055184 C5.89855469,4.75064871 5.89514941,4.75069747 5.89173274,4.75069747 C5.84321606,4.75069747 5.79699592,4.74086483 5.75495633,4.72308359 C5.62698025,4.66922132 5.53918094,4.54532002 5.53918094,4.40091209 L5.54018094,4.39038168 L5.54034386,1.61577057 C5.54034386,1.42170384 5.69766602,1.26438168 5.89173274,1.26438168 Z" id="Combined-Shape" transform="translate(7.2961, 3.0075) scale(-1, 1) rotate(45) translate(-7.2961, -3.0075)"></path>
                <path d="M2.42160972,2.69678032 L7.57882842,2.71191629 C7.74765124,2.71241177 7.88438534,2.84914798 7.88487821,3.0179708 C7.88536737,3.18552162 7.74993714,3.32174494 7.58238632,3.3222341 C7.58179429,3.32223583 7.58120226,3.32223582 7.58061023,3.32223408 L2.42339153,3.30709812 C2.25456872,3.30660264 2.11783462,3.16986643 2.11734174,3.00104361 C2.11685258,2.83349279 2.25228281,2.69726947 2.41983363,2.69678031 C2.42042566,2.69677858 2.42101769,2.69677859 2.42160972,2.69678032 Z" id="Rectangle" transform="translate(5.0011, 3.0095) rotate(114) translate(-5.0011, -3.0095)"></path>
            </g>
        </g>
        <g id="Tree/file/security" transform="translate(4, 434)">
            <path d="M7,0 L7,5 L12,5 L12,14.5 C12,14.7761424 11.7761424,15 11.5,15 L0.5,15 C0.223857625,15 1.69088438e-17,14.7761424 0,14.5 L0,0.5 C-3.38176876e-17,0.223857625 0.223857625,3.38176876e-17 0.5,0 L7,0 Z" id="bottom-rectangle" fill="#FFFFFF"></path>
            <path d="M7,7 C7.27614237,7 7.5,7.22385763 7.5,7.5 L7.5,9 L8.5,9 C8.77614237,9 9,9.22385763 9,9.5 L9,12.5 C9,12.7761424 8.77614237,13 8.5,13 L3.5,13 C3.22385763,13 3,12.7761424 3,12.5 L3,9.5 C3,9.22385763 3.22385763,9 3.5,9 L4.5,9 L4.5,7.5 C4.5,7.22385763 4.72385763,7 5,7 L7,7 Z M6,10 C5.72385763,10 5.5,10.2238576 5.5,10.5 C5.5,10.70573 5.62425133,10.8824396 5.80180563,10.9591803 C5.7016129,11.1154917 5.60080645,11.3967742 5.5,11.8 L6.5,11.8 C6.39919355,11.3967742 6.2983871,11.1154917 6.19758065,10.9561524 C6.37574867,10.8824396 6.5,10.70573 6.5,10.5 C6.5,10.2238576 6.27614237,10 6,10 Z M6.65,7.7 L5.35,7.7 C5.23954305,7.7 5.15,7.78954305 5.15,7.9 L5.15,9 L6.85,9 L6.85,7.9 C6.85,7.78954305 6.76045695,7.7 6.65,7.7 Z" id="lock" fill="#0081CB"></path>
            <polygon id="fold" fill="#055DAB" points="7 0 12 5 7 5"></polygon>
        </g>
        <g id="Tree/file/bundles" transform="translate(4, 398)">
            <path d="M7,0 L7,5 L12,5 L12,14.5 C12,14.7761424 11.7761424,15 11.5,15 L0.5,15 C0.223857625,15 1.69088438e-17,14.7761424 0,14.5 L0,0.5 C-3.38176876e-17,0.223857625 0.223857625,3.38176876e-17 0.5,0 L7,0 Z" id="bottom-rectangle" fill="#FFFFFF"></path>
            <polygon id="fold" fill="#055DAB" points="7 0 12 5 7 5"></polygon>
            <path d="M10.442,13.666 L10.79,13.132 C9.878,12.796 9.11,12.388 8.492,11.896 C9.044,11.29 9.464,10.54 9.752,9.64 L10.658,9.64 L10.658,9.016 L8.39,9.016 C8.21,8.626 8.012,8.29 7.796,8.008 L7.166,8.236 C7.382,8.482 7.568,8.74 7.718,9.016 L5.342,9.016 L5.342,9.64 L6.254,9.64 C6.506,10.51 6.956,11.272 7.604,11.932 C6.98,12.46 6.188,12.844 5.234,13.09 L5.57,13.642 C6.548,13.366 7.376,12.928 8.048,12.334 C8.684,12.862 9.482,13.306 10.442,13.666 Z M8.048,11.506 C7.496,10.966 7.1,10.348 6.854,9.64 L9.104,9.64 C8.87,10.366 8.516,10.99 8.048,11.506 Z" id="文" fill="#0081CB" fill-rule="nonzero"></path>
            <path d="M3.079,7.536 C3.385,7.536 3.709,7.473 4.015,7.356 C4.321,7.239 4.492,7.122 4.843,6.807 L4.843,7.446 L5.572,7.446 C5.518,7.086 5.5,6.861 5.5,6.456 L5.5,3.927 C5.5,2.955 4.888,2.451 3.7,2.451 C3.025,2.451 2.485,2.622 2.116,2.964 C1.891,3.162 1.774,3.351 1.612,3.765 L2.314,3.918 C2.404,3.648 2.476,3.522 2.593,3.396 C2.845,3.135 3.214,3.009 3.709,3.009 C4.456,3.009 4.843,3.324 4.843,3.936 L4.843,4.458 C3.736,4.485 3.304,4.539 2.773,4.692 C1.936,4.926 1.486,5.448 1.486,6.168 C1.486,7.023 2.089,7.536 3.079,7.536 Z M3.124,6.987 C2.539,6.987 2.17,6.672 2.17,6.177 C2.17,5.745 2.395,5.439 2.854,5.25 C3.259,5.079 3.772,5.016 4.843,4.989 L4.843,5.574 C4.843,5.934 4.771,6.123 4.564,6.348 C4.213,6.735 3.646,6.987 3.124,6.987 Z" id="a" fill="#0081CB" fill-rule="nonzero"></path>
        </g>
        <g id="Group" transform="translate(4, 362)">
            <path d="M7,0 L7,5 L12,5 L12,14.5 C12,14.7761424 11.7761424,15 11.5,15 L0.5,15 C0.223857625,15 1.69088438e-17,14.7761424 0,14.5 L0,0.5 C-3.38176876e-17,0.223857625 0.223857625,3.38176876e-17 0.5,0 L7,0 Z" id="bottom-rectangle" fill="#FFFFFF"></path>
            <polygon id="fold" fill="#055DAB" points="7 0 12 5 7 5"></polygon>
            <path d="M2.25,12 L9.75,12 C9.88807119,12 10,12.1119288 10,12.25 L10,12.75 C10,12.8880712 9.88807119,13 9.75,13 L2.25,13 C2.11192881,13 2,12.8880712 2,12.75 L2,12.25 C2,12.1119288 2.11192881,12 2.25,12 Z M2.25,10 L9.75,10 C9.88807119,10 10,10.1119288 10,10.25 L10,10.75 C10,10.8880712 9.88807119,11 9.75,11 L2.25,11 C2.11192881,11 2,10.8880712 2,10.75 L2,10.25 C2,10.1119288 2.11192881,10 2.25,10 Z M2.25,8 L9.75,8 C9.88807119,8 10,8.11192881 10,8.25 L10,8.75 C10,8.88807119 9.88807119,9 9.75,9 L2.25,9 C2.11192881,9 2,8.88807119 2,8.75 L2,8.25 C2,8.11192881 2.11192881,8 2.25,8 Z" id="long-lines" fill="#0081CB"></path>
        </g>
        <g id="Tree/file/domain-topic" transform="translate(2, 328)">
            <rect id="dark" fill="#E9F8F7" x="0" y="0" width="15" height="12" rx="0.5"></rect>
            <rect id="light" fill="#249490" x="1" y="3" width="13" height="8" rx="0.5"></rect>
            <rect id="Rectangle" fill="#EFD884" x="10" y="4" width="3" height="6" rx="0.25"></rect>
            <rect id="Rectangle" fill="#EBBD94" x="6" y="4" width="3" height="6" rx="0.25"></rect>
            <rect id="Rectangle" fill="#C4DEDC" x="2" y="4" width="3" height="6" rx="0.25"></rect>
        </g>
        <g id="Tree/file/topic" transform="translate(2, 292)">
            <rect id="dark" fill="#E9F8F7" x="0" y="0" width="15" height="12" rx="0.5"></rect>
            <rect id="light" fill="#63BCB9" x="1" y="3" width="13" height="8" rx="0.5"></rect>
            <path d="M10.25,4 L12.75,4 C12.8880712,4 13,4.11192881 13,4.25 L13,9.75 C13,9.88807119 12.8880712,10 12.75,10 L10.25,10 C10.1119288,10 10,9.88807119 10,9.75 L10,4.25 C10,4.11192881 10.1119288,4 10.25,4 Z M6.25,4 L8.75,4 C8.88807119,4 9,4.11192881 9,4.25 L9,9.75 C9,9.88807119 8.88807119,10 8.75,10 L6.25,10 C6.11192881,10 6,9.88807119 6,9.75 L6,4.25 C6,4.11192881 6.11192881,4 6.25,4 Z M2.25,4 L4.75,4 C4.88807119,4 5,4.11192881 5,4.25 L5,9.75 C5,9.88807119 4.88807119,10 4.75,10 L2.25,10 C2.11192881,10 2,9.88807119 2,9.75 L2,4.25 C2,4.11192881 2.11192881,4 2.25,4 Z" id="Combined-Shape" fill="#C4DEDC"></path>
        </g>
        <g id="Tree/file/olap" transform="translate(2, 254)">
            <g id="Group" transform="translate(0, 0)">
                <polygon id="Combined-Shape" fill="#C1DCF5" points="0 2.93103448 7.45025127 0 14.8275862 2.93103448 7.37733494 5.86206897"></polygon>
                <polygon id="Path-2" fill="#7FC0E5" points="1.56388312e-13 3.96551724 0 12.2372589 6.89655172 15 6.89655172 6.77784238"></polygon>
                <polygon id="Path-2" fill="#82AED5" points="14.8275862 3.96551724 14.8275862 12.2372589 7.93103448 15 7.93103448 6.77784238"></polygon>
            </g>
        </g>
        <g id="Group" transform="translate(1, 216)">
            <circle id="bg" fill="#D673AD" cx="9" cy="9" r="9"></circle>
            <path d="M9,5.32907052e-14 C11.3068382,5.32907052e-14 13.3481049,0.846321404 14.9377441,2.23702203 C13.8661789,3.49869669 13.1102642,4.38635601 12.67,4.9 C11.5721758,3.98541403 10.4070669,3.5 9,3.5 C7.59293311,3.5 6.31138211,4.04533123 5.32761924,4.9 L3.0554657,2.23702203 C4.64510495,0.846321404 6.69316179,5.32907052e-14 9,5.32907052e-14 Z" id="fill-3" fill="#FCDAF3" fill-rule="nonzero"></path>
            <path d="M9,3.5 C12.0375661,3.5 14.5,5.96243388 14.5,9 C14.5,10.5248724 13.8794452,11.9048065 12.8770974,12.9010406 L15.0586254,15.66 C13.3677022,17.22 11.3481604,18 9,18 C6.65183965,18 4.61009301,17.21885 2.87476009,15.6565499 L5.09895944,12.8770974 C4.11068198,11.882755 3.5,10.5126937 3.5,9 C3.5,5.96243388 5.96243388,3.5 9,3.5 Z" id="Combined-Shape" fill="#FBF0F8"></path>
            <path d="M7.2,11.208559 L10.8,11.208559 C10.8,12.2829114 9.99411255,13.1538462 9,13.1538462 C8.00588745,13.1538462 7.2,12.2829114 7.2,11.208559 Z M9,1.95399252e-14 L10.8,11.208559 L7.2,11.208559 L9,1.95399252e-14 Z" id="Combined-Shape" fill="#D673AD"></path>
        </g>
        <g id="group" transform="translate(1, 108)">
            <mask id="mask-2" fill="white">
                <use xlink:href="#path-1"></use>
            </mask>
            <use id="Oval-3" fill="#2599FF" fill-rule="nonzero" xlink:href="#path-1"></use>
            <g id="Group" mask="url(#mask-2)">
                <g transform="translate(0, 2)" id="Rectangle">
                    <polygon fill="#A5D4F0" points="0.129032258 6.48120301 6.04301075 0.428571429 10.2672811 9.07518797 17.8709677 0.428571429 17.8709677 16.8571429 0.129032258 16.8571429"></polygon>
                    <polygon fill="#02577B" points="0.129032258 10.7857143 6.04301075 7.31632653 10.2672811 12.5204082 17.8709677 4.71428571 17.8709677 16.8571429 0.129032258 16.8571429"></polygon>
                </g>
            </g>
        </g>
        <g id="Group" transform="translate(1, 180)">
            <mask id="mask-4" fill="white">
                <use xlink:href="#path-3"></use>
            </mask>
            <use id="Oval-4" fill="#9AC64C" fill-rule="nonzero" xlink:href="#path-3"></use>
            <g transform="translate(4.5, 3.58)" fill="#FFFFFF">
                <path d="M5,0 C5.55228475,-1.01453063e-16 6,0.44771525 6,1 L6,2.5 L3.5,2.5 C2.98716416,2.5 2.56449284,2.88604019 2.50672773,3.38337887 L2.5,3.5 L2.5,8 L1,8 C0.44771525,8 3.38176876e-17,7.55228475 0,7 L0,1 C-6.76353751e-17,0.44771525 0.44771525,6.76353751e-17 1,0 L5,0 Z" id="Combined-Shape"></path>
                <rect id="Rectangle" x="3.7" y="3.7" width="5.4" height="7.4" rx="1"></rect>
            </g>
        </g>
        <g id="Group" transform="translate(1, 144)">
            <mask id="mask-6" fill="white">
                <use xlink:href="#path-5"></use>
            </mask>
            <use id="Oval-4" fill="#9AC64C" fill-rule="nonzero" xlink:href="#path-5"></use>
            <path d="M6,4 L13,4 C14.1045695,4 15,4.8954305 15,6 L15,16 C15,17.1045695 14.1045695,18 13,18 L6,18 C4.8954305,18 4,17.1045695 4,16 L4,6 C4,4.8954305 4.8954305,4 6,4 Z" id="Rectangle-8" fill="#FFFFFF" mask="url(#mask-6)"></path>
            <polygon id="Rectangle" fill="#9AC64C" fill-rule="nonzero" mask="url(#mask-6)" points="6 6 9 6 9 14 6 14"></polygon>
            <polygon id="Rectangle" fill="#9AC64C" fill-rule="nonzero" mask="url(#mask-6)" points="10 8 13 8 13 14 10 14"></polygon>
            <circle id="Oval-6" stroke="#9AC64C" stroke-width="4" fill-rule="nonzero" mask="url(#mask-6)" cx="9" cy="9" r="9"></circle>
        </g>
        <g id="Tree/file/domain" transform="translate(1, 72)">
            <circle id="Oval-7" fill="#E9F8F7" fill-rule="nonzero" cx="9" cy="9" r="9"></circle>
            <path d="M14.5,5 C14.7761424,5 15,5.22385763 15,5.5 L15,11.5 C15,11.7761424 14.7761424,12 14.5,12 L11.5,12 L11.5,16.5 C11.5,16.7761424 11.2761424,17 11,17 L10.5,17 C10.2238576,17 10,16.7761424 10,16.5 L10,12 L6.5,12 C6.22385763,12 6,11.7761424 6,11.5 L6,9.3 L1.5,9.3 C1.22385763,9.3 1,9.07614237 1,8.8 L1,8.3 C1,8.02385763 1.22385763,7.8 1.5,7.8 L6,7.8 L6,5.5 C6,5.22385763 6.22385763,5 6.5,5 L14.5,5 Z" id="Combined-Shape" fill="#249490"></path>
            <rect id="Rectangle" fill="#F2F4F4" fill-rule="nonzero" x="7" y="7" width="7" height="4"></rect>
        </g>
        <g id="Group" transform="translate(1, 36)">
            <circle id="bg" fill="#FFCDA0" cx="9" cy="9" r="9"></circle>
            <path d="M5,11.2 L13,11.2 C13.5522847,11.2 14,11.6477153 14,12.2 L14,13 C14,13.5522847 13.5522847,14 13,14 L5,14 C4.44771525,14 4,13.5522847 4,13 L4,12.2 C4,11.6477153 4.44771525,11.2 5,11.2 Z M5,7.7 L13,7.7 C13.5522847,7.7 14,8.14771525 14,8.7 L14,9.5 C14,10.0522847 13.5522847,10.5 13,10.5 L5,10.5 C4.44771525,10.5 4,10.0522847 4,9.5 L4,8.7 C4,8.14771525 4.44771525,7.7 5,7.7 Z M5,4.2 L13,4.2 C13.5522847,4.2 14,4.64771525 14,5.2 L14,6 C14,6.55228475 13.5522847,7 13,7 L5,7 C4.44771525,7 4,6.55228475 4,6 L4,5.2 C4,4.64771525 4.44771525,4.2 5,4.2 Z" id="Combined-Shape" fill="#C85806" fill-rule="nonzero"></path>
            <path d="M5.5,13.1 C5.77614237,13.1 6,12.8761424 6,12.6 C6,12.3238576 5.77614237,12.1 5.5,12.1 C5.22385763,12.1 5,12.3238576 5,12.6 C5,12.8761424 5.22385763,13.1 5.5,13.1 Z M5.5,9.6 C5.77614237,9.6 6,9.37614237 6,9.1 C6,8.82385763 5.77614237,8.6 5.5,8.6 C5.22385763,8.6 5,8.82385763 5,9.1 C5,9.37614237 5.22385763,9.6 5.5,9.6 Z M5.5,6.1 C5.77614237,6.1 6,5.87614237 6,5.6 C6,5.32385763 5.77614237,5.1 5.5,5.1 C5.22385763,5.1 5,5.32385763 5,5.6 C5,5.87614237 5.22385763,6.1 5.5,6.1 Z" id="Combined-Shape" fill="#FFDEAF" fill-rule="nonzero"></path>
        </g>
        <g id="icon-folder" transform="translate(2, 2)">
            <polygon id="Path" fill="#50ADFF" points="0 14 16 14 16 6 0 6"></polygon>
            <polygon id="Path" fill="#A5D4F0" points="0 6 16 6 16 5 0 5"></polygon>
            <polygon id="Path" fill="#055DAB" points="0 5 16 5 16 2.5 6.38375593 2.5 4.09804165 0 0 0"></polygon>
        </g>
    </g>
</svg>